<svg xmlns="http://www.w3.org/2000/svg" viewBox="0 0 135.23 106.36">
  <title>Animals-046</title>
  <path class="cls-1" d="M102.31,0a11.54,11.54,0,0,0-3.75,1.38A35.59,35.59,0,0,0,94.46,4C82.91.32,71,1.58,67.56,1.67c-1.64,0-5.7-.28-10.67-.13A60,60,0,0,0,40.76,4.07a35.87,35.87,0,0,0-4.1-2.55c-1.7-.87-3.31-1.6-5-1.37C19.87,1.74,9.75,10.55,1.93,22.41A13.12,13.12,0,0,0,.49,33,28.8,28.8,0,0,0,5.72,43.23a36.87,36.87,0,0,0,7.83,7.68c2.67,1.88,5.17,3.14,7.57,2.64a6.58,6.58,0,0,0,3.77-2.38A13.05,13.05,0,0,0,27,47a67.31,67.31,0,0,0,2.12-11.11,74.61,74.61,0,0,1,2.2-11.43c1-3.35,2.52-5.89,4.67-7.18a1.48,1.48,0,1,0-1.51-2.53c-3.08,1.85-4.83,5.15-6,8.84a76.48,76.48,0,0,0-2.31,11.89,66.77,66.77,0,0,1-2,10.6,10.36,10.36,0,0,1-1.62,3.25,3.42,3.42,0,0,1-2.07,1.35c-.7.14-2.9-.49-5.28-2.16a34.26,34.26,0,0,1-7.18-7.05,26.15,26.15,0,0,1-4.69-9.16c-.76-3.06-.57-5.85,1-8.25C11.93,12.6,21.5,4.52,32,3.1a9,9,0,0,1,3.29,1.07,36,36,0,0,1,4.36,2.71,1.5,1.5,0,0,0,1.33.2A56.55,56.55,0,0,1,57,4.5c4.79-.14,8.58.19,10.67.13,4-.11,15.56-1.33,26.55,2.33a1.5,1.5,0,0,0,1.33-.2A36.66,36.66,0,0,1,99.91,4,9,9,0,0,1,103.2,3c10.53,1.42,20.08,9.5,27.62,20.94,1.58,2.4,1.79,5.19,1,8.25a26.19,26.19,0,0,1-4.69,9.18A34.29,34.29,0,0,1,120,48.38c-2.37,1.67-4.58,2.3-5.28,2.16a3.43,3.43,0,0,1-2.07-1.35A10.49,10.49,0,0,1,111,45.93a66.78,66.78,0,0,1-2-10.58,75.75,75.75,0,0,0-2.31-11.91c-1.15-3.7-2.9-7-6-8.83a1.48,1.48,0,1,0-1.51,2.53c2.15,1.29,3.62,3.83,4.67,7.18a74.58,74.58,0,0,1,2.2,11.43,66.77,66.77,0,0,0,2.12,11.1,13.19,13.19,0,0,0,2.14,4.21,6.55,6.55,0,0,0,3.77,2.36c2.4.5,4.9-.74,7.57-2.62a36.81,36.81,0,0,0,7.83-7.68,28.83,28.83,0,0,0,5.23-10.25,13.15,13.15,0,0,0-1.44-10.6C125.47,10.42,115.35,1.64,103.6.05a5.23,5.23,0,0,0-1.29,0Zm0,0"/>
  <path class="cls-1" d="M18.77,50.49a1.51,1.51,0,0,0-1.4,1A57.36,57.36,0,0,0,15.15,62.1l0,0C13.68,75.42,19,84,26.21,89.52S42.27,97.68,48.46,100c5.29,4.56,15,6.42,20.72,6.35a28.33,28.33,0,0,0,17.61-6.48c6.19-2.33,15.07-5,22.21-10.47s12.55-14.1,11.09-27.4l0,0a52.63,52.63,0,0,0-2-10.1,1.48,1.48,0,1,0-2.82.89,49.16,49.16,0,0,1,1.9,9.56h0c1.36,12.42-3.31,19.67-9.93,24.74S91.91,94.79,85.55,97.2a1.44,1.44,0,0,0-.48.28c-4.25,3.85-10.91,5.87-15.92,5.92s-15-2.17-19-5.8a1.49,1.49,0,0,0-.48-.29c-6.37-2.4-15-5.06-21.65-10.14s-11.3-12.31-10-24.7v0a53.63,53.63,0,0,1,2.12-10,1.55,1.55,0,0,0-1.42-1.94Zm0,0"/>
  <path class="cls-1" d="M48.13,34.31a7.66,7.66,0,0,0-4,.76,10.7,10.7,0,0,0-3.19,2.18,5.64,5.64,0,0,0-1,1.31,2.22,2.22,0,0,0-.29,1.53c.56,2.58,2.83,4.07,5.15,4.73a10.16,10.16,0,0,0,6.46-.13A3.39,3.39,0,0,0,53,41.51a9.53,9.53,0,0,0-1.36-4.8,4.66,4.66,0,0,0-3.53-2.4Zm-.22,1.75a2.7,2.7,0,0,1,2.2,1.51,7.91,7.91,0,0,1,1.15,3.88c0,1-.37,1.44-.74,1.61a9.16,9.16,0,0,1-5.26,0c-2-.55-3.52-1.65-3.9-3.4,0,0,0-.08.13-.31a4,4,0,0,1,.68-.89,9.43,9.43,0,0,1,2.68-1.83,6,6,0,0,1,3.06-.61Zm0,0"/>
  <path class="cls-1" d="M46.29,36.85c-2.11.21-3.22,5.29.61,5.19,3.32-.09,3.26-5.58-.61-5.19Zm0,0"/>
  <path class="cls-1" d="M67.48,52.69C56.66,52.83,55,66,68.09,65.82c12.38-.16,10.38-13.27-.61-13.13Zm0,0"/>
  <path class="cls-1" d="M67.59,63.67a1.23,1.23,0,0,0-1,1.22l.15,9.63a1.18,1.18,0,1,0,2.36,0l-.15-9.64a1.24,1.24,0,0,0-1.33-1.18Zm0,0"/>
  <path class="cls-1" d="M38.06,72a1.25,1.25,0,0,0-.89,1.83c3,4.69,5.91,7.3,8.84,8.45a11.25,11.25,0,0,0,8.32-.22,59.52,59.52,0,0,0,7.18-3.69,13.86,13.86,0,0,1,6.33-2.09,14.24,14.24,0,0,1,6.33,2.18,58.51,58.51,0,0,0,7.18,3.75,11.25,11.25,0,0,0,8.34.22c2.93-1.15,5.84-3.75,8.84-8.43a1.18,1.18,0,1,0-2-1.28c-2.85,4.44-5.43,6.61-7.72,7.51A8.73,8.73,0,0,1,82.21,80a60.52,60.52,0,0,1-6.89-3.6C73,75.14,70.54,74,67.88,74s-5.12,1.11-7.48,2.38a61.06,61.06,0,0,1-6.89,3.54,8.76,8.76,0,0,1-6.65.24c-2.29-.9-4.87-3.1-7.72-7.53A1.22,1.22,0,0,0,38.06,72Zm0,0"/>
  <path class="cls-1" d="M84.68,34.7a4.61,4.61,0,0,0-3.51,2.4,9.44,9.44,0,0,0-1.36,4.78,3.39,3.39,0,0,0,1.79,3.18,10.11,10.11,0,0,0,6.44.13c2.32-.66,4.59-2.13,5.15-4.71A2.22,2.22,0,0,0,92.92,39a5.79,5.79,0,0,0-1-1.31,10.91,10.91,0,0,0-3.21-2.19,7.6,7.6,0,0,0-4-.74Zm.22,1.75a6.09,6.09,0,0,1,3.08.61,9.36,9.36,0,0,1,2.68,1.83,4.17,4.17,0,0,1,.68.87,1,1,0,0,1,.11.33c-.38,1.75-1.94,2.85-3.89,3.4a9.13,9.13,0,0,1-5.26-.05c-.37-.16-.69-.61-.72-1.59A7.9,7.9,0,0,1,82.72,38a2.67,2.67,0,0,1,2.18-1.51Zm0,0"/>
  <path class="cls-1" d="M86.53,37.23c2.11.21,3.22,5.29-.61,5.19-3.32-.09-3.26-5.58.61-5.19Zm0,0"/>
  <path class="cls-1" d="M54.92,79.66A1.23,1.23,0,0,0,53.79,81c.48,3.78.93,9.5,2.82,14.36a15.68,15.68,0,0,0,4.19,6.33,11.13,11.13,0,0,0,7.61,2.64c6.2-.08,9.87-3.83,11.74-8.49S82.4,85.56,82.7,80.93a1.18,1.18,0,1,0-2.36-.15C80,85.4,79.62,90.84,78,95s-4.27,6.93-9.58,7a8.59,8.59,0,0,1-6-2.07,13.44,13.44,0,0,1-3.51-5.41c-1.71-4.4-2.2-9.91-2.69-13.79a1.22,1.22,0,0,0-1.22-1Zm0,0"/>
  <path class="cls-1" d="M68,79.36a1.23,1.23,0,0,0-1,1.2V93.08a1.18,1.18,0,1,0,2.37,0V80.56A1.24,1.24,0,0,0,68,79.36Zm0,0"/>
</svg>
