<svg xmlns="http://www.w3.org/2000/svg" viewBox="0 0 135.31 98.19">
  <title>Animals-050</title>
  <path d="M27.93,24c-2.12-.11-4.13,1-6.22,2.7A63.27,63.27,0,0,0,15.17,33c-4.53,4.83-9.42,10.41-14,13.42A1.19,1.19,0,0,0,.75,47c-1,2.62-1,4.73-.18,6.35a8.14,8.14,0,0,0,2.9,3,6.3,6.3,0,0,0,1,4.93,4.94,4.94,0,0,0,3.71,1.86,5.69,5.69,0,0,0,1.48,4.67,5.87,5.87,0,0,0,4.58,1.7,5.87,5.87,0,0,0,3.25,3.6,6.34,6.34,0,0,0,3.93.09,6.14,6.14,0,0,0,3.36,3.69,5.29,5.29,0,0,0,3.14.24,6.24,6.24,0,0,0,2.44,4.32,5.41,5.41,0,0,0,2.92,1.09,3.87,3.87,0,0,0,2.86-1l0,0s0-.07.08-.09c3-2.59,4.23-7.92,5-13.77a109.93,109.93,0,0,0,.61-17,1.18,1.18,0,1,0-2.36.09,108.16,108.16,0,0,1-.59,16.62c-.72,5.72-2.29,10.74-4.21,12.33l-.09.08a1.38,1.38,0,0,1-1.15.39,3.14,3.14,0,0,1-1.64-.63,3.74,3.74,0,0,1-1.44-4,1.18,1.18,0,0,0-1.88-1.18,2.81,2.81,0,0,1-2.77.31,3.9,3.9,0,0,1-2.29-3.12,1.24,1.24,0,0,0-1.64-.83,4.45,4.45,0,0,1-3.38.16A3.51,3.51,0,0,1,16.22,68a1.23,1.23,0,0,0-1.44-.91,3.63,3.63,0,0,1-3.42-.94,3.47,3.47,0,0,1-.57-3.93,1.25,1.25,0,0,0-1.38-1.57,2.66,2.66,0,0,1-3.07-.83,4.3,4.3,0,0,1-.46-3.69,1.22,1.22,0,0,0-.5-1.29,7.23,7.23,0,0,1-2.7-2.58c-.44-.92-.49-2.17.22-4.23,4.88-3.35,9.64-8.82,14-13.48a61.59,61.59,0,0,1,6.26-6.05c1.9-1.5,3.54-2.24,4.63-2.18A1.18,1.18,0,1,0,27.93,24Zm0,0"/>
  <path d="M64.59,0a7.53,7.53,0,0,0-4,1.29,5.81,5.81,0,0,0-8.49,1.83,6.07,6.07,0,0,0-4.47-.83,5.59,5.59,0,0,0-3.29,3.36,5.39,5.39,0,0,0-5,.46,7.38,7.38,0,0,0-2.61,4,5,5,0,0,0-4.58,1.18,5.77,5.77,0,0,0-1.83,4.62,5.13,5.13,0,0,0-2.8,2.51,4.59,4.59,0,0,0,.22,4.38,5.84,5.84,0,0,0-1.35,5.37,5.68,5.68,0,0,0,2.88,3.34,5.24,5.24,0,0,0-.5,4.06,4.66,4.66,0,0,0,2.66,2.81,5,5,0,0,0-.33,4.47,6,6,0,0,0,3.34,3,5.41,5.41,0,0,0,2.18,4.52,7,7,0,0,0,5.83.72,4.78,4.78,0,0,0,2.36,1,9.68,9.68,0,0,0,3.55-.29,10.6,10.6,0,0,0,3.19-1.38A5.14,5.14,0,0,0,53,49,8.13,8.13,0,0,0,57.95,49a5.24,5.24,0,0,0,3-2.73,7.06,7.06,0,0,0,6.72-1.7,8,8,0,0,0,7.44,1.38,5.9,5.9,0,0,0,3.45,3.49,8.77,8.77,0,0,0,5.09.07,4.37,4.37,0,0,0,.85,1.22A7,7,0,0,0,87,52.28a6.43,6.43,0,0,0,5.76-.48,7,7,0,0,0,5.89-.7,5.36,5.36,0,0,0,2.16-4.5,6,6,0,0,0,3.34-3,5,5,0,0,0-.31-4.47,4.72,4.72,0,0,0,2.66-2.82,5.22,5.22,0,0,0-.52-4,5.66,5.66,0,0,0,2.88-3.36,5.85,5.85,0,0,0-1.35-5.37,4.56,4.56,0,0,0,.22-4.37A5.11,5.11,0,0,0,105,16.61,5.78,5.78,0,0,0,103.12,12a4.92,4.92,0,0,0-4.54-1.18,7.37,7.37,0,0,0-2.64-4,5.37,5.37,0,0,0-5-.46A5.59,5.59,0,0,0,87.65,3a6.05,6.05,0,0,0-4.45.83,5.83,5.83,0,0,0-8.25-2A4.77,4.77,0,0,0,72,0,7.29,7.29,0,0,0,67.9,1a7.35,7.35,0,0,0-3.31-1Zm7.13,2.35a2.48,2.48,0,0,1,2,1.59,1.24,1.24,0,0,0,1.88.28,3.41,3.41,0,0,1,5.78,1.48,1.24,1.24,0,0,0,1.81.72C85,5.31,86.18,5.05,87,5.29s1.57,1,2.22,3A1.24,1.24,0,0,0,90.94,9c1.59-1,2.69-.85,3.68-.17a5.73,5.73,0,0,1,2.09,3.75,1.24,1.24,0,0,0,1.81.79,2.29,2.29,0,0,1,3,.39,3.35,3.35,0,0,1,1,3.43,1.24,1.24,0,0,0,1,1.53,2.82,2.82,0,0,1,2.11,1.5,2,2,0,0,1-.44,2.56,1.23,1.23,0,0,0,.06,1.68c1.47,1.38,1.69,2.67,1.36,3.75a3.49,3.49,0,0,1-2.71,2.29,1.25,1.25,0,0,0-.63,2,3.26,3.26,0,0,1,1,3.12,2.5,2.5,0,0,1-2.46,1.68,1.18,1.18,0,0,0-.74,2c1.37,1.41,1.37,2.43,1,3.34a4,4,0,0,1-2.64,2,1.23,1.23,0,0,0-.91,1.33,3,3,0,0,1-1.16,3.23,4.84,4.84,0,0,1-4.36.26,1.21,1.21,0,0,0-1.16.24,4,4,0,0,1-3.94.37,5,5,0,0,1-1.72-1,1.26,1.26,0,0,1-.46-.81A1.24,1.24,0,0,0,84.07,47a7,7,0,0,1-4.72.18,3.26,3.26,0,0,1-2.29-2.92,1.24,1.24,0,0,0-1.73-.9,5.87,5.87,0,0,1-7-1.25,1.24,1.24,0,0,0-1.94.16A4.15,4.15,0,0,1,63.84,44a4.06,4.06,0,0,1-3.1-.37,1.25,1.25,0,0,0-1.85,1,2.33,2.33,0,0,1-1.79,2.18,6.11,6.11,0,0,1-4.28-.09,1.23,1.23,0,0,0-1.59.85,2.46,2.46,0,0,1-1,1,8.42,8.42,0,0,1-2.48,1.07,7.57,7.57,0,0,1-2.68.22,2.1,2.1,0,0,1-1.46-.65,1.22,1.22,0,0,0-1.31-.41A4.85,4.85,0,0,1,38,48.47a3,3,0,0,1-1.16-3.23,1.23,1.23,0,0,0-.89-1.33,4,4,0,0,1-2.66-2c-.41-.92-.39-1.93,1-3.34a1.18,1.18,0,0,0-.74-2A2.51,2.51,0,0,1,31,34.87a3.25,3.25,0,0,1,1-3.12,1.24,1.24,0,0,0-.61-2,3.51,3.51,0,0,1-2.71-2.31c-.32-1.07-.1-2.37,1.37-3.75a1.23,1.23,0,0,0,0-1.68,2,2,0,0,1-.42-2.56A2.79,2.79,0,0,1,31.75,18a1.24,1.24,0,0,0,1.05-1.53,3.35,3.35,0,0,1,1-3.43,2.28,2.28,0,0,1,3-.37,1.24,1.24,0,0,0,1.81-.81A5.73,5.73,0,0,1,40.7,8.1c1-.68,2.07-.85,3.65.16a1.24,1.24,0,0,0,1.75-.63c.65-2,1.45-2.81,2.23-3s2,0,3.75,1.15A1.24,1.24,0,0,0,53.88,5a3.42,3.42,0,0,1,5.78-1.48,1.22,1.22,0,0,0,1.55.11,5.28,5.28,0,0,1,3.32-1.26,5.61,5.61,0,0,1,2.73.94,1.22,1.22,0,0,0,1.2,0,5.74,5.74,0,0,1,3.25-1Zm0,0"/>
  <path d="M66.18,57.78a5.68,5.68,0,0,0-2.44.06,5.52,5.52,0,0,0-3.49,3A5.87,5.87,0,0,0,56,60.69a5,5,0,0,0-2.43,3.08,5.5,5.5,0,0,0-3.64.55,4.46,4.46,0,0,0-2,2.79,4.53,4.53,0,0,0-4,1.07,5.22,5.22,0,0,0-1.59,3.34,4.15,4.15,0,0,0-3.62,2.05,4.65,4.65,0,0,0,0,4.47,4.46,4.46,0,0,0-1,5,4.83,4.83,0,0,0,3.42,2.53,4.76,4.76,0,0,0,1,3.92,4.43,4.43,0,0,0,3.69,1.31,3.29,3.29,0,0,0,.28,1.13,4.4,4.4,0,0,0,2.14,1.9,5.17,5.17,0,0,0,2.86.42,4.1,4.1,0,0,0,2.09-1.09,3.78,3.78,0,0,0,3.58-1.5,3.43,3.43,0,0,0,.52-2.07c2.69-.15,5.13-2.94,3.77-5.5A1.18,1.18,0,1,0,59,85.19c.48.91-1.35,2.74-2.73,1.81a1.18,1.18,0,0,0-1.68,1.57,1.78,1.78,0,0,1,.22,1.81c-.2.32-.63.62-1.75.4a1.22,1.22,0,0,0-1.18.48,1.49,1.49,0,0,1-1.09.63,2.91,2.91,0,0,1-1.55-.24,2.18,2.18,0,0,1-1-.85.83.83,0,0,1,0-.92,1.18,1.18,0,0,0-1.42-1.66c-1.56.52-2.44.2-2.92-.33a2.94,2.94,0,0,1-.18-3,1.24,1.24,0,0,0-1.22-1.57A2.72,2.72,0,0,1,39.8,82c-.39-.79-.38-1.71,1.13-2.86a1.23,1.23,0,0,0,.15-1.74,2.28,2.28,0,0,1-.28-2.64c.44-.77,1-1.21,2.35-.68a1.25,1.25,0,0,0,1.6-1.37,3.09,3.09,0,0,1,.81-2.79c.67-.63,1.48-.91,2.82-.13a1.18,1.18,0,0,0,1.77-1.14,2.05,2.05,0,0,1,1-2.27A3.55,3.55,0,0,1,54,66.18a1.23,1.23,0,0,0,1.53-.94A2.85,2.85,0,0,1,57,62.85a4.05,4.05,0,0,1,3.39.41,1.23,1.23,0,0,0,1.64-.7c.55-1.65,1.37-2.22,2.27-2.44a3.71,3.71,0,0,1,2.71.52,1.2,1.2,0,0,0,1.27,0A3.75,3.75,0,0,1,71,60.16a3.2,3.2,0,0,1,2.29,2.45,1.23,1.23,0,0,0,1.62.68,4,4,0,0,1,3.4-.39,2.85,2.85,0,0,1,1.49,2.38,1.24,1.24,0,0,0,1.55.92,3.53,3.53,0,0,1,2.8.2,2,2,0,0,1,1,2.27,1.18,1.18,0,0,0,1.77,1.14c1.35-.78,2.15-.5,2.82.13a3.1,3.1,0,0,1,.83,2.79,1.25,1.25,0,0,0,1.59,1.36c1.3-.52,1.91-.09,2.34.68a2.27,2.27,0,0,1-.26,2.64,1.23,1.23,0,0,0,.15,1.74c1.51,1.15,1.5,2.07,1.11,2.86a2.68,2.68,0,0,1-2.68,1.31,1.25,1.25,0,0,0-1.24,1.59,2.92,2.92,0,0,1-.18,3c-.48.53-1.34.83-2.9.31a1.18,1.18,0,0,0-1.42,1.66,1.5,1.5,0,0,1,.2,1.09.62.62,0,0,1-.37.42c-.38.19-1.09.23-1.75-.7a1.25,1.25,0,0,0-2,.21c-.05.12,0,.1-.28.09a2.64,2.64,0,0,1-1.25-.5,2.39,2.39,0,0,1-.87-1.11A1.08,1.08,0,0,1,81,88.29a1.18,1.18,0,0,0-1.61-1.68,1.86,1.86,0,0,1-2.12,0A1.32,1.32,0,0,1,76.7,86a.66.66,0,0,1,.05-.61,1.18,1.18,0,1,0-2.09-1.11,3.18,3.18,0,0,0-.21,2.49,3.62,3.62,0,0,0,1.42,1.81,4.31,4.31,0,0,0,2.51.7,3.39,3.39,0,0,0,.05.85,4.59,4.59,0,0,0,1.75,2.31,4.65,4.65,0,0,0,2.56,1A2.85,2.85,0,0,0,84.18,93a3.6,3.6,0,0,0,3.78.52,3.08,3.08,0,0,0,1.59-1.92,3.31,3.31,0,0,0,0-.81,4.39,4.39,0,0,0,3.56-1.31,4.74,4.74,0,0,0,1-3.9,4.86,4.86,0,0,0,3.43-2.53,4.51,4.51,0,0,0-1-5,4.63,4.63,0,0,0,0-4.45,4.18,4.18,0,0,0-3.64-2.05,5.26,5.26,0,0,0-1.57-3.36,4.51,4.51,0,0,0-4-1.05,4.49,4.49,0,0,0-2-2.79,5.44,5.44,0,0,0-3.62-.55,5,5,0,0,0-2.45-3.08,5.82,5.82,0,0,0-4.25.09,5.49,5.49,0,0,0-3.47-3,5.79,5.79,0,0,0-3.9.52,6,6,0,0,0-1.49-.61Zm0,0"/>
  <path d="M49.76,52.45c-5.83.36-5.65,8.52.31,8.27a4.15,4.15,0,1,0-.31-8.27Zm0,0"/>
  <path d="M67.65,72.21c-7.58.49-7.76,10.22.72,9.66s6.87-10.15-.72-9.66Zm0,0"/>
  <path d="M107.81,24.42a1.19,1.19,0,0,0,.24,2.37c1.09-.06,2.68.7,4.52,2.22a60.68,60.68,0,0,1,6.09,6.13c4.23,4.73,8.85,10.28,13.74,13.64.71,2.05.64,3.31.2,4.23a7.25,7.25,0,0,1-2.69,2.58,1.21,1.21,0,0,0-.48,1.29,4.29,4.29,0,0,1-.48,3.69,2.67,2.67,0,0,1-3.07.83A1.25,1.25,0,0,0,124.5,63a3.46,3.46,0,0,1-.57,3.93,3.59,3.59,0,0,1-3.4.92,1.23,1.23,0,0,0-1.46.92,3.52,3.52,0,0,1-2.14,2.9,4.42,4.42,0,0,1-3.36-.18,1.24,1.24,0,0,0-1.64.85,3.91,3.91,0,0,1-2.29,3.12,2.84,2.84,0,0,1-2.79-.33,1.18,1.18,0,0,0-1.88,1.2,3.71,3.71,0,0,1-1.44,4,3.19,3.19,0,0,1-1.64.65,1.36,1.36,0,0,1-1.14-.39l-.09-.08C98.74,78.86,97.23,73.8,96.57,68a116.59,116.59,0,0,1-.5-16.74,1.18,1.18,0,0,0-2.36-.09,117.68,117.68,0,0,0,.5,17.11c.68,5.91,1.85,11.27,4.88,13.87l0,0,.08,0,0,0a3.88,3.88,0,0,0,2.86,1,5.45,5.45,0,0,0,2.92-1.11,6.22,6.22,0,0,0,2.46-4.3,5.26,5.26,0,0,0,3.12-.24,6.13,6.13,0,0,0,3.36-3.69,6.33,6.33,0,0,0,4-.09,5.89,5.89,0,0,0,3.25-3.6,5.84,5.84,0,0,0,4.56-1.7,5.73,5.73,0,0,0,1.48-4.69A5,5,0,0,0,130.84,62a6.32,6.32,0,0,0,1-4.93A8.13,8.13,0,0,0,134.73,54c.78-1.63.81-3.72-.17-6.33a1.18,1.18,0,0,0-.46-.57c-4.54-3-9.29-8.65-13.68-13.55a62.31,62.31,0,0,0-6.33-6.39c-2-1.68-4-2.86-6.17-2.75Zm0,0"/>
  <path d="M85.23,52.93c5.83.36,5.65,8.52-.31,8.27a4.15,4.15,0,1,1,.31-8.27Zm0,0"/>
  <path d="M80.8,90.84a1.22,1.22,0,0,0-1.2,1,2.74,2.74,0,0,1-.54,1.44c-.34.39-.9.77-2.38.77a1.21,1.21,0,0,0-.89.39,3,3,0,0,1-4.12.7,1.21,1.21,0,0,0-1.25,0,6,6,0,0,1-2.62.61,4.12,4.12,0,0,1-2.27-.54A1.22,1.22,0,0,0,64,95.2a2.8,2.8,0,0,1-3.93-.54,1.2,1.2,0,0,0-.89-.39c-1.48,0-2-.39-2.38-.78a2.68,2.68,0,0,1-.53-1.44,1.18,1.18,0,0,0-2.35.31A5,5,0,0,0,55,95.07a5.21,5.21,0,0,0,3.67,1.48,5.16,5.16,0,0,0,5.91,1,6.1,6.1,0,0,0,3.23.68,8,8,0,0,0,3.25-.72,5.48,5.48,0,0,0,6.07-1.07,5.21,5.21,0,0,0,3.69-1.52,4.86,4.86,0,0,0,1.11-2.68,1.23,1.23,0,0,0-1.14-1.36Zm0,0"/>
  <path d="M67.53,80.51a1.23,1.23,0,0,0-1.05,1.2v3.1a1.18,1.18,0,1,0,2.36,0v-3.1a1.23,1.23,0,0,0-1.31-1.2Zm0,0"/>
  <path d="M67.62,83.42a1.5,1.5,0,0,0-1.22.72c.1-.17-.14.12-.57.33a7.19,7.19,0,0,1-1.66.55,3.6,3.6,0,0,1-2.64-.3,1.48,1.48,0,0,0-2.11,2.09c1.49,1.49,3.58,1.45,5.32,1.11a9.83,9.83,0,0,0,2.4-.79c.2-.1.38-.22.57-.33a9,9,0,0,0,3.19,1,7.12,7.12,0,0,0,5.26-.83,1.48,1.48,0,1,0-1.68-2.42,5.39,5.39,0,0,1-3.14.33,9.3,9.3,0,0,1-2.57-.92,1.49,1.49,0,0,0-1.16-.52Zm0,0"/>
  <path d="M72.55,85.32a1.23,1.23,0,0,0-1.09,1.37,4.44,4.44,0,0,1-.85,3.84,3.86,3.86,0,0,1-5.56,0,4.22,4.22,0,0,1-.81-3.73,1.18,1.18,0,1,0-2.33-.39,6.7,6.7,0,0,0,1.37,5.69,6.23,6.23,0,0,0,9.1,0,6.89,6.89,0,0,0,1.42-5.76,1.22,1.22,0,0,0-1.25-1Zm0,0"/>
  <path d="M67.51,85.91a1.22,1.22,0,0,0-1.05,1.18v2.42a1.18,1.18,0,1,0,2.36,0V87.09a1.23,1.23,0,0,0-1.31-1.18Zm0,0"/>
</svg>
