<svg xmlns="http://www.w3.org/2000/svg" viewBox="0 0 122.66 106.59">
  <title>Animals-044</title>
  <path class="cls-1" d="M32.77,0a10.39,10.39,0,0,0-3.68.39A92.65,92.65,0,0,0,13.14,7.49a54.51,54.51,0,0,0-8.42,5.58C2.39,15,.63,17,.2,19.29c-.5,2.67,0,5.43.5,8.55A35.28,35.28,0,0,1,.92,38.54a1.22,1.22,0,0,0,.74,1.26,1.22,1.22,0,0,0,1.4-.43,50.21,50.21,0,0,0,2.64-4.3,14.25,14.25,0,0,1-.24,1.62c-.69,2.65-1.91,5.44-2.36,7.64a1.25,1.25,0,0,0,1.62,1.33c2.53-1.08,4.73-3.47,6.52-6.15a27.46,27.46,0,0,0,1.57-2.81,14.65,14.65,0,0,1-.46,1.83c-.87,2.32-2.2,4.61-2.69,7a1.18,1.18,0,0,0,1.88,1.16c11.16-8.76,19.09-22,19.09-38.2a1.18,1.18,0,1,0-2.36,0A45.1,45.1,0,0,1,13.51,41.84c.35-.8.72-1.6,1-2.47,1-2.56,1.56-5.55.22-8.62a1.18,1.18,0,0,0-2.23.24,22.66,22.66,0,0,1-3.27,7.2,20.51,20.51,0,0,1-2.86,3.44c.49-1.45.9-2.65,1.33-4.32a15,15,0,0,0,.59-4.36A6,6,0,0,0,6.81,29a1.18,1.18,0,0,0-2,1A7.75,7.75,0,0,1,3.71,33.8c0,.09-.1.15-.15.24A47.25,47.25,0,0,0,3,27.5c-.46-3.17-.9-5.74-.52-7.77.24-1.25,1.58-3.05,3.73-4.85a52.56,52.56,0,0,1,8-5.32A93.41,93.41,0,0,1,29.76,2.69,7.07,7.07,0,0,1,35,3a9.52,9.52,0,0,1,3.78,3.53,1.23,1.23,0,0,0,1.61.39c4.48-2.66,9.92-2.33,21-2.31s16.48-.32,21,2.35a1.23,1.23,0,0,0,1.6-.37,9.58,9.58,0,0,1,3.78-3.55,7.08,7.08,0,0,1,5.23-.31,93.43,93.43,0,0,1,15.47,6.87,52.73,52.73,0,0,1,8,5.32c2.15,1.8,3.49,3.59,3.73,4.84.38,2-.06,4.6-.52,7.77a47.57,47.57,0,0,0-.52,6.57c-.05-.1-.12-.18-.16-.28a7.58,7.58,0,0,1-1.07-3.73,1.18,1.18,0,0,0-2-1.05,6,6,0,0,0-1.51,4,14.9,14.9,0,0,0,.59,4.34c.44,1.67.86,2.89,1.35,4.34a20.48,20.48,0,0,1-2.88-3.44A22.77,22.77,0,0,1,110.1,31a1.18,1.18,0,0,0-2.25-.22c-1.34,3.07-.72,6.06.24,8.62.32.87.67,1.64,1,2.44A45.09,45.09,0,0,1,94.38,8.54a1.18,1.18,0,1,0-2.37,0c0,16.2,8,29.44,19.11,38.2A1.18,1.18,0,0,0,113,45.56c-.49-2.37-1.83-4.64-2.69-7a15.12,15.12,0,0,1-.46-1.86,28.12,28.12,0,0,0,1.57,2.82c1.79,2.67,4,5.08,6.52,6.16a1.24,1.24,0,0,0,1.62-1.33c-.45-2.2-1.67-5-2.36-7.64a15.4,15.4,0,0,1-.22-1.62c.87,1.64,1.92,3.23,2.62,4.3a1.18,1.18,0,0,0,2.14-.83A35.37,35.37,0,0,1,122,27.89c.45-3.12,1-5.88.5-8.55-.43-2.27-2.19-4.26-4.52-6.22a54.66,54.66,0,0,0-8.42-5.58,93,93,0,0,0-16-7.07,9.56,9.56,0,0,0-6.89.46,11.36,11.36,0,0,0-4.08,3.55c-5-2.57-10.9-2.19-21.25-2.22S45.12,1.87,40.08,4.44A11.3,11.3,0,0,0,36,.88,9.06,9.06,0,0,0,32.77,0Zm0,0"/>
  <path class="cls-1" d="M25.92,24.4a1.23,1.23,0,0,0-1.12,1.24c.15,4.15-2.57,8.39-5.58,13.59s-6.16,11.36-6.16,19.4a1.18,1.18,0,0,0,2.12.72l.48-.63c-.79,2-1.61,3.95-2.25,6.05C11.75,70.21,11,76,14.32,80.3A1.18,1.18,0,0,0,16.37,80a13.46,13.46,0,0,0,3,8.81,1.18,1.18,0,0,0,2-1.16c0,.1,0-.12,0-.44a6.79,6.79,0,0,1,.35-1.26,30.94,30.94,0,0,0,6.57,16.47,1.18,1.18,0,0,0,2.11-.89,12.07,12.07,0,0,1,.31-5.21A21.93,21.93,0,0,0,38,106.35a1.18,1.18,0,0,0,1.9-.91,18.08,18.08,0,0,1,3-10,21.21,21.21,0,0,0,4.08,8,1.24,1.24,0,0,0,2-.29,18.88,18.88,0,0,1,8.84-10.27,1.18,1.18,0,1,0-1.07-2.1,20.71,20.71,0,0,0-9.08,9.64c-1.4-2.13-2.88-5.13-2.77-8.12a1.18,1.18,0,0,0-2.09-.81A20.69,20.69,0,0,0,37.77,103,19.56,19.56,0,0,1,32.12,92.3a1.18,1.18,0,0,0-2.25-.22,21,21,0,0,0-1.74,5.76C25.4,93.45,23.91,88.71,23.81,82a1.18,1.18,0,0,0-2.12-.72,14.59,14.59,0,0,0-2,3.49,12.94,12.94,0,0,1-1-5.48A33.26,33.26,0,0,1,20.51,70a1.18,1.18,0,0,0-2-1.09,22.46,22.46,0,0,0-3.78,6.2,20.85,20.85,0,0,1,1-9.62c1.57-5.16,4.17-10.3,5.37-13.94a1.18,1.18,0,0,0-2-1.09c-1,1.34-2.15,2.83-3.18,4.19A39.6,39.6,0,0,1,21.25,40.4c3-5.12,6.09-9.67,5.91-14.86a1.23,1.23,0,0,0-1.24-1.14Zm70.78,0a1.23,1.23,0,0,0-1.22,1.16c-.18,5.19,3,9.73,5.91,14.84a39.73,39.73,0,0,1,5.46,14.22c-1-1.36-2.14-2.86-3.18-4.19a1.18,1.18,0,0,0-2,1.11c1.2,3.64,3.8,8.78,5.37,13.94a20.76,20.76,0,0,1,1,9.64,22.32,22.32,0,0,0-3.77-6.22,1.18,1.18,0,0,0-2,1.09A33.51,33.51,0,0,1,104,79.36,12.93,12.93,0,0,1,102.9,85l0-.06a16.05,16.05,0,0,0-2.14-3.75,1.18,1.18,0,0,0-2.12.7c-.1,6.67-1.58,11.44-4.3,15.82A20.75,20.75,0,0,0,92.56,92a1.18,1.18,0,0,0-2.25.24,19.59,19.59,0,0,1-5.65,10.73,20.68,20.68,0,0,0-5.06-11.54,1.18,1.18,0,0,0-2.09.81c.11,3-1.37,6-2.77,8.09A20.57,20.57,0,0,0,67,91.45a1.18,1.18,0,1,0-1.24,2,19,19,0,0,1,7.7,9.58,1.24,1.24,0,0,0,2,.3,21.26,21.26,0,0,0,4.08-8.05,18.12,18.12,0,0,1,3,10,1.18,1.18,0,0,0,1.9.91,22,22,0,0,0,7.24-10.06,12.15,12.15,0,0,1,.31,5.2,1.18,1.18,0,0,0,2.1.89,31,31,0,0,0,6.57-16.49s0,0,0,.06a8.29,8.29,0,0,1,.57,2.1,1.18,1.18,0,0,0,2.09.81,13.33,13.33,0,0,0,3-8.68,1.25,1.25,0,0,0,2,.28c3.31-4.28,2.59-10.1.94-15.53-.64-2.12-1.46-4.13-2.25-6.09l.48.65a1.18,1.18,0,0,0,2.12-.7c0-8-3.16-14.22-6.17-19.42s-5.74-9.42-5.59-13.57a1.23,1.23,0,0,0-1.15-1.26Zm-80,52c-.06.46-.13.91-.17,1.37a8.13,8.13,0,0,1,.17-1.37Zm89.34.09a8.12,8.12,0,0,1,.13,1c0-.35-.08-.69-.13-1Zm0,0"/>
  <path class="cls-1" d="M62.4,52.87c-9.53-.06-10.05,12.12.06,11.67s9.46-11.61-.06-11.67Zm0,0"/>
  <path class="cls-1" d="M62.32,63.63a1.23,1.23,0,0,0-1.05,1.2v6.3a1.18,1.18,0,1,0,2.37,0v-6.3a1.24,1.24,0,0,0-1.31-1.2Zm0,0"/>
  <path class="cls-1" d="M49.31,69.76a1.23,1.23,0,0,0-1.2,1.05,9,9,0,0,0,.83,5.67,5.18,5.18,0,0,0,3.93,2.62c3,.33,6.36-1.62,9.47-5.6,3.11,4,6.49,5.94,9.47,5.61a5.17,5.17,0,0,0,3.93-2.62,9,9,0,0,0,.81-5.67,1.18,1.18,0,1,0-2.35.3,6.84,6.84,0,0,1-.54,4.21,2.59,2.59,0,0,1-2.12,1.42C69.65,77,66.37,75.43,63.3,71a1.24,1.24,0,0,0-1.94,0c-3.07,4.44-6.33,6-8.23,5.78A2.63,2.63,0,0,1,51,75.32a6.79,6.79,0,0,1-.54-4.19,1.24,1.24,0,0,0-1.15-1.37Zm0,0"/>
  <path class="cls-1" d="M55.14,77.09a1.22,1.22,0,0,0-1,1.09A27.49,27.49,0,0,0,55,89a10.32,10.32,0,0,0,2.58,4.34,7.16,7.16,0,0,0,4.78,1.9,7,7,0,0,0,4.91-1.81A11.41,11.41,0,0,0,70.15,89a28.17,28.17,0,0,0,1.57-10.76,1.18,1.18,0,1,0-2.36.09,26.5,26.5,0,0,1-1.42,9.82,9.2,9.2,0,0,1-2.22,3.51,4.46,4.46,0,0,1-3.29,1.2,4.59,4.59,0,0,1-3.21-1.28,8,8,0,0,1-2-3.34,25.78,25.78,0,0,1-.78-9.84,1.23,1.23,0,0,0-1.33-1.31Zm0,0"/>
  <path class="cls-1" d="M62.4,76.57a1.22,1.22,0,0,0-1.16,1.2v8.38a1.18,1.18,0,1,0,2.36,0V77.77a1.23,1.23,0,0,0-1.2-1.2Zm0,0"/>
  <path class="cls-1" d="M43,33.72a4.91,4.91,0,0,0-2,.85A6.19,6.19,0,0,0,38.69,39a4.32,4.32,0,0,0,1.42,4,5.85,5.85,0,0,0,3.8,1.16,7.67,7.67,0,0,0,3.9-1.07A4.4,4.4,0,0,0,50,39.87a6,6,0,0,0-7-6.15Zm.35,1.75a3.93,3.93,0,0,1,1.42,0,4,4,0,0,1,3.51,4.19,2.6,2.6,0,0,1-1.38,1.9,6.15,6.15,0,0,1-3,.83,4.19,4.19,0,0,1-2.64-.77,2.38,2.38,0,0,1-.79-2.4A4.36,4.36,0,0,1,42.07,36a3.16,3.16,0,0,1,1.28-.54Zm0,0"/>
  <path class="cls-1" d="M43.59,36.42c-2.85.43-2.68,5,.56,4.7,3.44-.34,2.57-5.18-.56-4.7Zm0,0"/>
  <path class="cls-1" d="M80.09,33.78a6,6,0,0,0-7,6.15,4.4,4.4,0,0,0,2.22,3.21,7.73,7.73,0,0,0,3.91,1.07A5.81,5.81,0,0,0,83,43a4.33,4.33,0,0,0,1.44-4,6.21,6.21,0,0,0-2.35-4.43,4.94,4.94,0,0,0-2-.85Zm-.33,1.73a3.22,3.22,0,0,1,1.27.55,4.34,4.34,0,0,1,1.61,3.21,2.37,2.37,0,0,1-.79,2.4,4.19,4.19,0,0,1-2.64.76,6.06,6.06,0,0,1-3-.81,2.61,2.61,0,0,1-1.38-1.9,4,4,0,0,1,3.49-4.19,3.9,3.9,0,0,1,1.44,0Zm0,0"/>
  <path class="cls-1" d="M79.5,36.47c2.85.43,2.68,5-.56,4.7-3.44-.34-2.57-5.18.56-4.7Zm0,0"/>
</svg>
