<svg xmlns="http://www.w3.org/2000/svg" viewBox="0 0 114.15 139.43">
  <title>Animals-048</title>
  <path class="cls-1" d="M28.59,0c-3.35.07-7.1,1.62-10.38,3.51a27.32,27.32,0,0,0-5.58,4.12c-1.43,1.43-2.56,2.78-2.35,4.49.46,3.68,2.95,6.27,6.13,8a39.82,39.82,0,0,0,11,3.6,1.21,1.21,0,0,0,1.18-.46c1.73-2.39,1.53-5.56,1.48-8.77s0-6.5,1.33-9.23a1.18,1.18,0,1,0-2.11-1.05c-1.68,3.38-1.64,7.09-1.59,10.32,0,2.8,0,5.15-.7,6.66a36.07,36.07,0,0,1-9.49-3.14c-2.8-1.54-4.58-3.46-4.93-6.26A5.84,5.84,0,0,1,14.3,9.31a25.62,25.62,0,0,1,5.09-3.75C23.46,3.23,28.43,1.8,31,2.7a17.12,17.12,0,0,1,4.62,3.45c1.77,1.68,3.58,3.61,5.21,5a1.21,1.21,0,0,0,1,.28A20.6,20.6,0,0,1,47.46,11c1.88.07,4.27.29,8.51.33,8.45.08,9.88-.4,14.71.57a1.19,1.19,0,0,0,1-.28c1.66-1.45,3.33-3.45,5-5.21s3.27-3.21,4.28-3.56c2.58-.9,7.55.55,11.61,2.88a25.57,25.57,0,0,1,5.09,3.73A5.86,5.86,0,0,1,99.32,12c-.35,2.79-2.13,4.73-4.93,6.28a36.14,36.14,0,0,1-9.49,3.12c-.68-1.51-.74-3.85-.7-6.65,0-3.23.1-6.93-1.59-10.32A1.18,1.18,0,1,0,80.5,5.45c1.36,2.73,1.38,6,1.33,9.23s-.25,6.38,1.48,8.77a1.22,1.22,0,0,0,1.18.46,40,40,0,0,0,11-3.6c3.18-1.76,5.67-4.38,6.13-8.05.21-1.7-.91-3-2.35-4.47a27.46,27.46,0,0,0-5.58-4.12C89.37,1.17,84.15-.77,80.17.61,78.25,1.28,76.63,3,74.95,4.8S71.86,8.22,70.5,9.47C66,8.65,63.94,9,56,9c-4.17,0-6.47-.25-8.44-.33A24.12,24.12,0,0,0,42,9c-1.41-1.27-3.06-3-4.76-4.58s-3.6-3.34-5.46-4A9.07,9.07,0,0,0,28.59,0Zm0,0"/>
  <path class="cls-1" d="M11.83,11.65A1.23,1.23,0,0,0,10.74,13a24.42,24.42,0,0,0,1.9,5.78,18,18,0,0,1,1.49,5.72C14,26.42,13,30.22,11.36,34.93S7.69,45.42,5.75,51.57C1.88,63.86-1.5,77.72.69,88.69a1.24,1.24,0,0,0,1.79.78c-.18,1-.42,2-.57,3.06C.47,102.61.83,112.59,6.53,118.41a1.18,1.18,0,0,0,1.92-1.31C6.14,112,6.34,106.2,7.39,100.71a58.18,58.18,0,0,0,.68,13.42c1.39,7.37,4.74,13.48,10.82,18a1.18,1.18,0,0,0,1.62-1.7,13.68,13.68,0,0,1-1.88-4.21,37.44,37.44,0,0,1-1.29-6.94,34.54,34.54,0,0,1,.08-7.55c1.13,11.77,7.13,21.46,15.14,26.68.07,0,.13.12.2.16a1.18,1.18,0,0,0,1.48-1.83c-2.84-2.9-3.89-7.45-4.38-12.15a37.27,37.27,0,0,0,3.19,5.82c2.85,4.15,6.5,7.39,10.75,8.48h0c.09,0,.17.07.26.09a1.18,1.18,0,0,0,.79-2.22c-1.48-.73-2.7-2.39-3.53-4.73a26.15,26.15,0,0,1-1.28-8.27,31.7,31.7,0,0,1,1.61-10.13,15.43,15.43,0,0,0,.85,3.42,11.43,11.43,0,0,0,5.54,6.42A1.18,1.18,0,0,0,49.69,122a16,16,0,0,1-.3-8.68A7.5,7.5,0,0,0,51,115.52a1.24,1.24,0,0,0,1.92-.5c1.18-3.63,2.2-5.92,4.19-7.51,2.1,2,3.15,4.32,4.34,8a1.24,1.24,0,0,0,1.92.52A7.56,7.56,0,0,0,65,113.76a16,16,0,0,1-.28,8.66,1.18,1.18,0,0,0,1.61,1.48,11.41,11.41,0,0,0,5.54-6.41,15.37,15.37,0,0,0,.85-3.42,31.62,31.62,0,0,1,1.61,10.12A26.15,26.15,0,0,1,73,132.47c-.82,2.33-2,4-3.53,4.74a1.18,1.18,0,0,0,.79,2.2c.09,0,.17-.07.26-.09h0c4.25-1.09,7.9-4.31,10.75-8.45A37.17,37.17,0,0,0,84.51,125c-.49,4.7-1.54,9.25-4.38,12.15A1.18,1.18,0,0,0,81.61,139l.22-.16c8-5.2,14-14.88,15.12-26.62a34.25,34.25,0,0,1,.07,7.48,36.19,36.19,0,0,1-1.31,6.9,12.66,12.66,0,0,1-1.9,4.08,1.18,1.18,0,0,0,1.61,1.72c.06,0,.1-.12.16-.17,5.92-4.55,9.21-10.62,10.58-17.93a58.38,58.38,0,0,0,.68-13.42c1.06,5.49,1.23,11.31-1.07,16.39a1.18,1.18,0,0,0,1.92,1.31c5.69-5.82,6.08-15.81,4.63-25.88-.15-1-.39-2.05-.57-3.08a1.24,1.24,0,0,0,1.77-.76c0-.1,0-.21,0-.31,2.07-10.95-1.7-24.33-6-36.33-2.19-6.06-4.53-11.76-6.37-16.56s-3.12-8.7-3.34-11A18,18,0,0,1,99.34,19a24.62,24.62,0,0,0,1.88-5.78,1.19,1.19,0,1,0-2.34-.37,23,23,0,0,1-1.74,5.24,20.48,20.48,0,0,0-1.7,6.54,1,1,0,0,0,0,.18c.26,2.88,1.67,6.84,3.53,11.69S103.15,47,105.32,53c3,8.25,5.56,17.09,6.26,25.11a43.23,43.23,0,0,0-6.72-12.79,1.18,1.18,0,0,0-2.07,1.12c2.46,6.6,5.8,16.8,7.2,26.59a46.75,46.75,0,0,1,0,15.51c.19-7.58-2.36-15.14-4.49-20.46a1.18,1.18,0,0,0-2.27.61c1.46,9.79,1.93,18.23.63,25.18a26.8,26.8,0,0,1-5.69,12.57,38.65,38.65,0,0,0,1.22-6.53c.52-5.38.09-11.33-2.48-15.6a1.18,1.18,0,0,0-2.18.7c.89,11.39-3.13,21.25-9.29,27.69,1.88-5.35,1.81-11.66,1.94-16.56a1.18,1.18,0,0,0-2.35-.26,38.07,38.07,0,0,1-5.67,13.63,23.13,23.13,0,0,1-4.69,5.08c.2-.44.41-.87.57-1.33a28.22,28.22,0,0,0,1.4-9c0-6.41-1.37-13-4.56-16.15a1.18,1.18,0,0,0-2,1.16,12.1,12.1,0,0,1-.52,7.4,11.06,11.06,0,0,1-2,3.31,23.23,23.23,0,0,0-1.7-11.3,1.18,1.18,0,0,0-2.27.42,8.17,8.17,0,0,1-.74,3.58c-1.14-3.1-2.47-5.59-5-7.62a1.21,1.21,0,0,0-1.36-.08c-2.63,1.66-4,4.13-5.11,7.24a8.12,8.12,0,0,1-.76-3.58,1.18,1.18,0,0,0-2.27-.42,23.13,23.13,0,0,0-1.68,11.32,11,11,0,0,1-2-3.32,12.15,12.15,0,0,1-.5-7.42,1.18,1.18,0,0,0-2-1.15c-3.19,3.19-4.61,9.74-4.56,16.15a28.22,28.22,0,0,0,1.4,9c.16.46.37.89.57,1.33A23,23,0,0,1,35,129.05a38.13,38.13,0,0,1-5.69-13.64,1.18,1.18,0,0,0-2.35.28c.12,4.91.05,11.21,1.94,16.56-6.16-6.45-10.17-16.29-9.29-27.69a1.18,1.18,0,0,0-2.18-.7c-2.56,4.28-3,10.22-2.47,15.62a39.86,39.86,0,0,0,1.27,7,26.26,26.26,0,0,1-5.85-12.74c-1.31-6.94-.85-15.35.61-25.15a1.18,1.18,0,0,0-2.27-.61c-2.13,5.31-4.68,12.86-4.49,20.44a46.88,46.88,0,0,1,0-15.49,137,137,0,0,1,7.18-26.6,1.18,1.18,0,0,0-2-1.13A43.15,43.15,0,0,0,2.5,78.52C3,70.2,5.29,60.87,8,52.27c1.92-6.09,4-11.8,5.61-16.58s2.8-8.54,2.9-11.12a1,1,0,0,0,0-.13,20.28,20.28,0,0,0-1.7-6.52,22.94,22.94,0,0,1-1.73-5.26,1.23,1.23,0,0,0-1.26-1Zm-7.13,68c-.35,1.27-.68,2.56-1,3.88a37.75,37.75,0,0,1,1-3.88Zm104.85.17a38.49,38.49,0,0,1,1,3.93c-.32-1.34-.67-2.64-1-3.93Zm0,0"/>
  <path class="cls-1" d="M56.31,59.46c-8.08,0-8.07,10.06.11,10.13s8-10.1-.11-10.13Zm0,0"/>
  <path class="cls-1" d="M56.65,68.48a1.23,1.23,0,0,0-1.18,1.18l-.13,4.91a1.18,1.18,0,1,0,2.36.06l.13-4.91a1.23,1.23,0,0,0-1.18-1.24Zm0,0"/>
  <path class="cls-1" d="M56.41,73a1.22,1.22,0,0,0-1,1,7.14,7.14,0,0,1-4.45,5.32,3.5,3.5,0,0,1-2.66-.09,4.19,4.19,0,0,1-2-2.61,1.18,1.18,0,0,0-2.24.78,6.62,6.62,0,0,0,3.2,4,5.87,5.87,0,0,0,4.41.2,9,9,0,0,0,4.88-4.12,9,9,0,0,0,4.89,4.23,5.87,5.87,0,0,0,4.43-.18A6.59,6.59,0,0,0,69,77.51a1.18,1.18,0,1,0-2.23-.78,4.13,4.13,0,0,1-2,2.58,3.48,3.48,0,0,1-2.66.09A7.23,7.23,0,0,1,57.7,74a1.22,1.22,0,0,0-1.29-1Zm0,0"/>
  <path class="cls-1" d="M43.18,41.26c-.64-8.11-8.41-4.12-8.28.08.1,3.2,8.54,3.2,8.28-.08Zm0,0"/>
  <path class="cls-1" d="M49.6,79.52a1.22,1.22,0,0,0-1.11,1.13c-.19,3.42-.37,8.08.59,12a11.36,11.36,0,0,0,2.53,5.19A7.11,7.11,0,0,0,57,100.08a7.21,7.21,0,0,0,5.35-2.25,10.8,10.8,0,0,0,2.38-5.08c.85-3.85.59-8.37.46-11.78a1.18,1.18,0,0,0-2.37.09c.14,3.44.34,7.81-.4,11.17a8.77,8.77,0,0,1-1.83,4,5.22,5.22,0,0,1-7.29,0,9.26,9.26,0,0,1-2-4.13c-.84-3.47-.7-8-.52-11.35a1.24,1.24,0,0,0-1.25-1.26Zm0,0"/>
  <path class="cls-1" d="M56.52,79.83A1.23,1.23,0,0,0,55.47,81l.05,9.55a1.18,1.18,0,1,0,2.36,0L57.83,81a1.23,1.23,0,0,0-1.31-1.18Zm0,0"/>
  <path class="cls-1" d="M68.34,41c.64-8.11,8.41-4.12,8.28.08-.1,3.2-8.54,3.2-8.28-.08Zm0,0"/>
</svg>
