<svg xmlns="http://www.w3.org/2000/svg" viewBox="0 0 125.07 101.36">
  <title>Animals-045</title>
  <g id="Layer_2" data-name="Layer 2">
    <g id="Layer_1-2" data-name="Layer 1">
      <path class="cls-1" d="M98.51,0a37.65,37.65,0,0,0-8.84,1c-2.25.51-3.62,2.41-5,4.19A43.69,43.69,0,0,1,81.86,8.7,17.71,17.71,0,0,0,76.61,7,70.82,70.82,0,0,0,62.53,5.87a72.27,72.27,0,0,0-14.09,1.2,17.54,17.54,0,0,0-5.28,1.72c-.92-.89-2-2.18-3.27-3.58-1.55-1.77-3.06-3.61-5.28-4.12-12.33-2.82-21.68.09-30.37,10.1l0,0A18,18,0,0,0,.16,25.29a10,10,0,0,0,3.08,6.3,8.91,8.91,0,0,0,7.55,1.75A1.52,1.52,0,0,0,12,32.11c1.7-10.84,6.85-18,17.15-21.69A1.54,1.54,0,0,0,30,8.52a1.54,1.54,0,0,0-1.89-.9C17.34,11.5,11.35,19.54,9.32,30.52a5.33,5.33,0,0,1-4.14-1.14,7.24,7.24,0,0,1-2.1-4.51c-.55-3.9.9-9,3.34-11.67l0,0C14.69,3.67,22.31,1.31,33.95,4c.67.15,2.26,1.49,3.73,3.18a31.51,31.51,0,0,0,4.51,4.76,1.53,1.53,0,0,0,1.94-.16A14.37,14.37,0,0,1,49,10a69.29,69.29,0,0,1,13.5-1.14A68.07,68.07,0,0,1,76,9.92a14.45,14.45,0,0,1,4.91,1.75,1.53,1.53,0,0,0,1.94.17c1.67-1.22,2.91-3.15,4.19-4.84s2.61-3,3.25-3.1c11.63-2.66,20.1-.27,28.3,9.19l0,0c2.45,2.65,3.89,7.77,3.34,11.67a7.23,7.23,0,0,1-2.11,4.51,5.34,5.34,0,0,1-4.13,1.15c-2-11-8-19-18.83-22.88a1.54,1.54,0,0,0-2,.84,1.54,1.54,0,0,0,1,1.93c10.3,3.69,15.45,10.87,17.15,21.71a1.51,1.51,0,0,0,1.22,1.22,8.86,8.86,0,0,0,7.53-1.74,10.05,10.05,0,0,0,3.1-6.31,18,18,0,0,0-4.06-14.07l0,0C114.28,3.59,107,.1,98.51,0Zm0,0"/>
      <path class="cls-1" d="M14.08,19.52a1.54,1.54,0,0,0-1.36,1.7,4.05,4.05,0,0,0,3,3.16,10.72,10.72,0,0,0,3.53.21,8.12,8.12,0,0,0,1.23,4.3,13,13,0,0,0,4.82,4.72,1.48,1.48,0,1,0,1.4-2.6A10.83,10.83,0,0,1,23,27.36c-.91-1.52-1.1-2.87-.61-3.73a1.48,1.48,0,0,0-1.53-2.19,11.47,11.47,0,0,1-4.38.09c-.81-.23-.83-.33-.89-.72a1.53,1.53,0,0,0-1.55-1.29Zm0,0"/>
      <path class="cls-1" d="M38.08,16.38A1.49,1.49,0,0,0,37,17c-1.35,1.82-5.52,6.34-9.31,11.52s-7.36,11-7.42,16.49C20.21,50.12,22.72,56.5,25.55,63s6,13.22,7.57,18.26a1.48,1.48,0,0,0,2.82-.87C34.27,75,31,68.33,28.24,61.87s-5.07-12.76-5-16.84,3.2-9.77,6.85-14.77S37.71,21,39.36,18.74a1.48,1.48,0,0,0-1.28-2.36Zm0,0"/>
      <path class="cls-1" d="M61.72,52.65c-9,.21-11.85,12.63-.14,12.77,12.78.15,10.67-13,.14-12.77Zm0,0"/>
      <path class="cls-1" d="M62.21,64.21a1.23,1.23,0,0,0-1.16,1.22l.07,10.17a1.18,1.18,0,1,0,2.37,0l-.08-10.17a1.23,1.23,0,0,0-1.2-1.2Zm0,0"/>
      <path class="cls-1" d="M62.53,47.62c-9.5,0-19.07,5.4-24,16.85-4.38,10.21-6.31,20.21-5.35,27.31.48,3.55,1.7,6.49,4,8.18s5.54,1.77,9.12.24c2.15-.92,3.27-3.05,4.21-5.41s1.69-5.12,2.61-7.74a22.7,22.7,0,0,1,3.43-6.81,7.11,7.11,0,0,1,5.61-2.88,6.76,6.76,0,0,1,5.7,2.57,23.77,23.77,0,0,1,3.81,6.9c1.05,2.68,1.95,5.5,3,7.9s2.23,4.55,4.43,5.41c4.23,1.65,7.73,1.63,10.17-.13s3.48-4.88,3.69-8.53c.43-7.29-2.33-17.39-6.7-27.1-5.42-12-14.34-16.8-23.78-16.76Zm0,3c8.48,0,16,3.81,21.08,15,4.25,9.43,6.82,19.34,6.44,25.7-.19,3.18-1.09,5.32-2.47,6.31s-3.61,1.24-7.35-.22c-.81-.32-1.87-1.66-2.82-3.84s-1.85-5-3-7.81A25.84,25.84,0,0,0,70.11,78a10.08,10.08,0,0,0-8-3.56,10.41,10.41,0,0,0-7.79,4,25,25,0,0,0-3.93,7.72c-1,2.75-1.7,5.49-2.55,7.61s-1.79,3.45-2.62,3.8c-3,1.29-4.88,1.06-6.24.08s-2.41-3.07-2.82-6.17c-.83-6.19.91-15.91,5.13-25.75,4.51-10.51,12.85-15,21.27-15.06Zm0,0"/>
      <path class="cls-1" d="M41.31,39.07a7.6,7.6,0,0,0-4.38.92,6.76,6.76,0,0,0-3.08,3.19,5.32,5.32,0,0,0,.33,4.72,3.88,3.88,0,0,0,3.55,1.81A9.49,9.49,0,0,0,42,48.58a8,8,0,0,0,3.29-3,4,4,0,0,0-.13-4.25,5.24,5.24,0,0,0-3.88-2.31Zm-.2,1.75a3.39,3.39,0,0,1,2.6,1.53,2,2,0,0,1,.05,2.4A6.43,6.43,0,0,1,41.2,47a7.88,7.88,0,0,1-3.45.94,2.09,2.09,0,0,1-2-.91,3.38,3.38,0,0,1-.26-3.16,5.11,5.11,0,0,1,2.29-2.35,5.93,5.93,0,0,1,3.34-.72Zm0,0"/>
      <path class="cls-1" d="M39.45,41.33c-2.71-.32-3.82,6.24.73,5.59,3.59-.52,2.72-5.18-.73-5.59Zm0,0"/>
      <path class="cls-1" d="M110.6,19.44a1.53,1.53,0,0,0-1.35,1.29c-.06.44-.07.5-.83.72a10.8,10.8,0,0,1-4.26-.07,1.48,1.48,0,0,0-1.51,2.18c.46.81.2,2.22-.79,3.8A11.89,11.89,0,0,1,98,31.11a1.48,1.48,0,1,0,1.38,2.61,14.11,14.11,0,0,0,5-4.78,8.41,8.41,0,0,0,1.42-4.43,10.31,10.31,0,0,0,3.49-.2,4,4,0,0,0,2.92-3.16,1.55,1.55,0,0,0-1.57-1.7Zm0,0"/>
      <path class="cls-1" d="M86.66,16.3a1.48,1.48,0,0,0-1.09,2.38c1.65,2.23,5.63,6.5,9.29,11.5s6.8,10.7,6.85,14.77-2.31,10.16-5.19,16.43S90.3,74.12,88.63,79.57a1.48,1.48,0,0,0,2.83.87c1.54-5,4.82-11.48,7.73-17.83s5.52-12.54,5.47-17.69c-.06-5.44-3.62-11.29-7.41-16.47s-8-9.72-9.3-11.54a1.51,1.51,0,0,0-1.29-.61Zm0,0"/>
      <path class="cls-1" d="M83.83,39.64a5.29,5.29,0,0,0-3.89,2.31,4,4,0,0,0-.11,4.25,7.94,7.94,0,0,0,3.29,3,9.36,9.36,0,0,0,4.28,1.15A3.92,3.92,0,0,0,91,48.49a5.33,5.33,0,0,0,.33-4.73,6.79,6.79,0,0,0-3.08-3.19,7.6,7.6,0,0,0-4.38-.92ZM84,41.41a5.89,5.89,0,0,1,3.34.7,5.11,5.11,0,0,1,2.29,2.34,3.37,3.37,0,0,1-.26,3.16,2.08,2.08,0,0,1-2,.9,7.89,7.89,0,0,1-3.47-.94,6.39,6.39,0,0,1-2.55-2.25,2,2,0,0,1,0-2.4A3.42,3.42,0,0,1,84,41.41Zm0,0"/>
      <path class="cls-1" d="M85.69,41.91c2.71-.33,3.82,6.24-.73,5.59-3.59-.51-2.72-5.18.73-5.59Zm0,0"/>
      <path class="cls-1" d="M75.28,91.56a1.48,1.48,0,0,0-1,.46c-2.41,2.47-7.21,3.87-12,3.89s-9.44-1.35-11.45-3.32a1.48,1.48,0,1,0-2.07,2.11c3,3,8.23,4.2,13.53,4.17s10.75-1.38,14.07-4.78a1.48,1.48,0,0,0-1.11-2.53Zm0,0"/>
      <path class="cls-1" d="M59.18,13.11a1.23,1.23,0,0,0-1,1.29,7.37,7.37,0,0,1-2.33,6.46,16.41,16.41,0,0,1-7.09,3.55,1.19,1.19,0,1,0,.61,2.29,18.51,18.51,0,0,0,8.12-4.14,10,10,0,0,0,3-8.36,1.23,1.23,0,0,0-1.31-1.09Zm0,0"/>
      <path class="cls-1" d="M65.78,13.06a1.22,1.22,0,0,0-1,1.09,9.94,9.94,0,0,0,3,8.36,18.52,18.52,0,0,0,8.12,4.13,1.18,1.18,0,1,0,.61-2.29,16.41,16.41,0,0,1-7.09-3.55,7.36,7.36,0,0,1-2.32-6.46,1.24,1.24,0,0,0-1.31-1.29Zm0,0"/>
      <path class="cls-1" d="M48.38,30.26c-2.25-.21-4.88.58-8.09,2.71a1.18,1.18,0,1,0,1.31,2c2.94-2,5-2.47,6.55-2.33a5.69,5.69,0,0,1,3.73,2.09c1.08,1.17,2,2.69,3.07,4s2.22,2.65,4,2.84a1.18,1.18,0,1,0,.26-2.35c-.7-.08-1.48-.74-2.4-1.94a52.26,52.26,0,0,0-3.19-4.19,8.21,8.21,0,0,0-5.24-2.84Zm0,0"/>
      <path class="cls-1" d="M76,30a8.25,8.25,0,0,0-5.26,2.84A52.53,52.53,0,0,0,67.58,37c-.92,1.19-1.71,1.86-2.42,1.94a1.18,1.18,0,1,0,.26,2.35c1.79-.2,3-1.5,4-2.84s2-2.86,3-4a5.74,5.74,0,0,1,3.75-2.09c1.53-.14,3.62.36,6.55,2.31a1.18,1.18,0,1,0,1.31-2C80.9,30.57,78.27,29.77,76,30Zm0,0"/>
      <path class="cls-1" d="M67.88,76.66a1.23,1.23,0,0,0-1.05,1.2c0,3.86-2.11,5.27-4.25,5.24s-4.4-1.58-4.56-5.28a1.18,1.18,0,0,0-2.36.09c.21,4.71,3.54,7.51,6.91,7.55s6.63-2.77,6.63-7.61a1.23,1.23,0,0,0-1.31-1.2Zm0,0"/>
      <path class="cls-1" d="M62.38,76.93a1.23,1.23,0,0,0-1.17,1.2V81.2a1.18,1.18,0,1,0,2.37,0V78.13a1.23,1.23,0,0,0-1.2-1.2Zm0,0"/>
      <path class="cls-1" d="M61.84,23.3a1.23,1.23,0,0,0-1,1.24c.08,2.67.23,6.2,0,9.16a1.18,1.18,0,1,0,2.36.17,91.85,91.85,0,0,0,0-9.4,1.23,1.23,0,0,0-1.35-1.16Zm0,0"/>
    </g>
  </g>
</svg>
