<svg xmlns="http://www.w3.org/2000/svg" viewBox="0 0 121.9 93.02">
  <title>Animals-043</title>
  <path class="cls-1" d="M108,0c-5.09-.12-10,1-14,4.93C90.44,1.62,85.19.63,79.63.41,73.45.18,66.73.89,61,.89S48.47.17,42.3.41C36.74.63,31.48,1.63,27.9,5,23.85,1,19-.09,13.88,0a10.84,10.84,0,0,0-8,4.19A24.64,24.64,0,0,0,1.5,12.67,30.63,30.63,0,0,0,0,21.31a12.1,12.1,0,0,0,.37,3.34,3.44,3.44,0,0,0,1.79,2.43,9.87,9.87,0,0,0,5.93.31A28.76,28.76,0,0,0,15.14,25c4.78-2.31,9.44-5.81,11.37-10.19a1.48,1.48,0,0,0-2.71-1.2c-1.43,3.25-5.56,6.62-9.93,8.73a26,26,0,0,1-6.31,2.16,8,8,0,0,1-4.17-.07c.2.09,0,0-.16-.55A9.53,9.53,0,0,1,3,21.35,28.08,28.08,0,0,1,4.3,13.58,22.11,22.11,0,0,1,8.16,6.13,7.77,7.77,0,0,1,13.94,3c5.11-.12,9.18.85,12.83,5.06A1.54,1.54,0,0,0,29,8c2.69-3.25,7.53-4.41,13.38-4.64S55,3.85,61,3.85s12.7-.72,18.55-.5S90.21,4.74,92.9,8a1.54,1.54,0,0,0,2.25,0C98.8,3.81,102.87,2.85,108,3a7.73,7.73,0,0,1,5.78,3.14,22.16,22.16,0,0,1,3.84,7.46A28,28,0,0,1,119,21.31a9.86,9.86,0,0,1-.24,2.53c-.16.56-.37.65-.17.55a8.08,8.08,0,0,1-4.17.08,26.06,26.06,0,0,1-6.31-2.16c-4.37-2.11-8.52-5.49-9.95-8.73a1.48,1.48,0,1,0-2.7,1.2C97.35,19.16,102,22.66,106.77,25a28.82,28.82,0,0,0,7.07,2.42,9.88,9.88,0,0,0,5.93-.31,3.44,3.44,0,0,0,1.79-2.44,12.11,12.11,0,0,0,.35-3.34,30.44,30.44,0,0,0-1.48-8.64A24.65,24.65,0,0,0,116,4.2,10.85,10.85,0,0,0,108,0Zm0,0"/>
  <path class="cls-1" d="M19.2,19.59A1.53,1.53,0,0,0,17.82,21c-.2,4-1.78,9.87-3.65,16.3s-4,13.5-5.28,20.16-1.65,13,.26,18,6.41,8.64,13.81,9.29a1.48,1.48,0,1,0,.26-2.93c-6.63-.58-9.73-3.24-11.3-7.38s-1.34-10-.13-16.45S15.1,44.61,17,38.15s3.55-12.38,3.78-17a1.54,1.54,0,0,0-1.57-1.57Zm0,0"/>
  <path class="cls-1" d="M60.69,39.18c-9.87.1-10.51,12.15.3,12.39s9.57-12.5-.3-12.39Zm0,0"/>
  <path class="cls-1" d="M60.54,49.52a1.22,1.22,0,0,0-1.05,1.18l-.15,13.9a1.18,1.18,0,1,0,2.36,0l.15-13.9a1.23,1.23,0,0,0-1.31-1.2Zm0,0"/>
  <path class="cls-1" d="M102.52,19.58a1.53,1.53,0,0,0-1.36,1.57c.23,4.61,1.9,10.52,3.78,17s4,13.43,5.2,19.86,1.44,12.31-.13,16.45-4.67,6.81-11.3,7.38A1.48,1.48,0,1,0,99,84.76c7.4-.65,11.9-4.22,13.81-9.29s1.51-11.35.26-18-3.4-13.72-5.28-20.16S104.31,25,104.11,21a1.54,1.54,0,0,0-1.59-1.42Zm0,0"/>
  <path class="cls-1" d="M61,35.3a22.41,22.41,0,0,0-14,4.49,37.9,37.9,0,0,0-8.23,9.39c-2.22,3.28-4.16,6.38-6.33,8.4A8.39,8.39,0,0,1,24.46,60a1.18,1.18,0,1,0-.41,2.31,11.07,11.07,0,0,0,9.93-3c2.54-2.35,4.51-5.58,6.68-8.81a36.1,36.1,0,0,1,7.7-8.84,19.84,19.84,0,0,1,12.59-4,19.83,19.83,0,0,1,12.59,4,36,36,0,0,1,7.7,8.84c2.18,3.22,4.15,6.46,6.68,8.8a11.07,11.07,0,0,0,9.93,3A1.18,1.18,0,1,0,97.44,60a8.34,8.34,0,0,1-7.9-2.38c-2.18-2-4.12-5.12-6.33-8.4A38,38,0,0,0,75,39.77,22.41,22.41,0,0,0,61,35.3Zm0,0"/>
  <path class="cls-1" d="M61,63.26a14.5,14.5,0,0,0-9.75,3.19,17.83,17.83,0,0,0-4.67,7.09c-1,2.57-1.8,5.18-2.75,7.31a8.92,8.92,0,0,1-3.65,4.56C35,88.16,30.09,87.94,27,85.41s-4.81-7.64-2.64-15.8a1.48,1.48,0,1,0-2.84-.76c-2.35,8.85-.61,15.43,3.62,18.87s10.54,3.46,16.43.29a11.76,11.76,0,0,0,4.95-6c1.07-2.4,1.82-5,2.79-7.38a15.15,15.15,0,0,1,3.86-6c1.74-1.49,4.08-2.47,7.83-2.48s6.09,1,7.83,2.48a15.06,15.06,0,0,1,3.86,6c1,2.38,1.72,5,2.79,7.38a11.8,11.8,0,0,0,5,6c5.89,3.16,12.2,3.14,16.43-.29s6-10,3.62-18.87a1.48,1.48,0,1,0-2.84.76c2.17,8.16.47,13.27-2.64,15.81s-8,2.75-13.16,0a8.93,8.93,0,0,1-3.65-4.56c-.95-2.13-1.71-4.74-2.75-7.31a17.75,17.75,0,0,0-4.67-7.09c-2.28-2-5.46-3.18-9.75-3.18Zm0,0"/>
  <path class="cls-1" d="M43.35,83.47a1.48,1.48,0,0,0-1,2.49C46.7,90.75,54,93,61.22,93s14.58-2.13,19.09-6.89a1.48,1.48,0,1,0-2.14-2c-3.69,3.89-10.32,6-17,6S48.07,87.86,44.53,84a1.5,1.5,0,0,0-1.18-.5Zm0,0"/>
  <path class="cls-1" d="M50.53,62.39a.77.77,0,0,0-.65.76l.18,5.46a.74.74,0,1,0,1.48,0l-.15-4,2.9,1.94a.74.74,0,1,0,.83-1.22L51,62.52a.76.76,0,0,0-.5-.13Zm0,0"/>
  <path class="cls-1" d="M71.15,62.19a.74.74,0,0,0-.35.13L66.7,65a.75.75,0,0,0,.83,1.24l2.9-1.94-.15,4a.74.74,0,1,0,1.48.05L72,63a.77.77,0,0,0-.81-.78Zm0,0"/>
  <path class="cls-1" d="M38.83,30.76A8.07,8.07,0,0,0,34.56,32a6.61,6.61,0,0,0-2.88,3.34A5,5,0,0,0,32.51,40c4,5.46,13.73-2,10.1-7.35a4.55,4.55,0,0,0-3.78-1.88Zm0,1.77a2.73,2.73,0,0,1,2.37,1.11c2.3,3.38-4.55,9-7.22,5.32a3.1,3.1,0,0,1-.59-3,5,5,0,0,1,2.14-2.42,6.45,6.45,0,0,1,3.3-1Zm0,0"/>
  <path class="cls-1" d="M38.42,33.78c-3-1.11-5.23,3.21-1.77,4.5s5.09-3.27,1.77-4.5Zm0,0"/>
  <path class="cls-1" d="M82.56,30.45a4.59,4.59,0,0,0-3.8,1.88c-3.63,5.33,6.12,12.8,10.1,7.35A5,5,0,0,0,89.69,35a6.54,6.54,0,0,0-2.88-3.32,8,8,0,0,0-4.25-1.24Zm0,1.77a6.45,6.45,0,0,1,3.31,1A4.93,4.93,0,0,1,88,35.6a3.09,3.09,0,0,1-.59,3c-2.67,3.67-9.52-1.94-7.22-5.32a2.71,2.71,0,0,1,2.36-1.11Zm0,0"/>
  <path class="cls-1" d="M83,33.48c3-1.11,5.23,3.2,1.77,4.5S79.64,34.7,83,33.48Zm0,0"/>
  <path class="cls-1" d="M49.87,9A16.32,16.32,0,0,0,35.1,15.39,1.18,1.18,0,1,0,37,16.75c2.73-3.84,8-5.85,12.61-5.37s8.43,3.11,9,8.86a1.18,1.18,0,0,0,2.36,0c.54-5.76,4.27-8.37,8.77-8.84a13.89,13.89,0,0,1,12.39,5.35A1.18,1.18,0,1,0,84,15.39,16.08,16.08,0,0,0,69.47,9a11.83,11.83,0,0,0-9.69,6.63A12.1,12.1,0,0,0,49.87,9Zm0,0"/>
  <path class="cls-1" d="M46.67,19.46c-5.27.1-11.4,3-17.54,9.73a1.18,1.18,0,1,0,1.74,1.59c7.79-8.51,14.92-10.13,19.94-8.29s8.26,7.28,7.92,13.92c0,0,0,.09,0,.13a1.18,1.18,0,0,0,2.37,0s0-.08,0-.13C60.75,29.77,64,24.35,69,22.51s12.15-.22,19.94,8.29a1.18,1.18,0,1,0,1.73-1.61C82.48,20.25,74.3,18,68.18,20.28a14.22,14.22,0,0,0-8.27,8.51,14.23,14.23,0,0,0-8.29-8.51,13.55,13.55,0,0,0-4.95-.81Zm0,0"/>
  <path class="cls-1" d="M66.09,64.27a1.23,1.23,0,0,0-1.15,1.33,6.18,6.18,0,0,1-1.05,4.69A3.62,3.62,0,0,1,61,71.67c-2.16,0-4.51-1.71-4.17-6.09a1.18,1.18,0,1,0-2.35-.18c-.42,5.37,3,8.62,6.5,8.64a6.07,6.07,0,0,0,4.76-2.25,8.65,8.65,0,0,0,1.55-6.44,1.23,1.23,0,0,0-1.2-1.07Zm0,0"/>
  <path class="cls-1" d="M60.82,65.53a1.23,1.23,0,0,0-1.11,1.24l.09,2.6a1.18,1.18,0,1,0,2.34-.07L62,66.69a1.23,1.23,0,0,0-1.23-1.16Zm0,0"/>
</svg>
