<svg xmlns="http://www.w3.org/2000/svg" viewBox="0 0 131.34 106.14">
  <title>Animals-049</title>
  <path class="cls-1" d="M65.63,0C55.45.27,49,1.29,44.47,2.71a30.16,30.16,0,0,0-9.27,4.8c-5.93,1.43-14.76,7-22.28,13.33a62,62,0,0,0-9.64,9.78c-2.37,3.18-3.94,6.22-3,9a140.52,140.52,0,0,0,10,23.78C14.4,70.76,19,76.71,24.68,78.26l.24,0a6.07,6.07,0,0,0,5.41-2.07,11.37,11.37,0,0,0,2.09-5.82C33,65.77,32.53,59.65,32,53s-1-13.69-.55-19.94,1.91-11.59,5-14.93a1.48,1.48,0,1,0-2.16-2C30.49,20.29,29,26.33,28.52,32.9s.05,13.75.55,20.36S30,65.95,29.5,70A9,9,0,0,1,28,74.36a2.73,2.73,0,0,1-2.75,1c-4-1.2-8.5-6.4-12.39-13.35A138.58,138.58,0,0,1,3.08,38.75c-.34-1,.41-3.47,2.57-6.35a60,60,0,0,1,9.18-9.31c7.43-6.25,16.75-11.85,21.4-12.85a1.48,1.48,0,0,0,.55-.24,27.07,27.07,0,0,1,8.58-4.47C49.52,4.23,55.7,3.22,65.7,3S81.81,3.71,86,5.07A28.47,28.47,0,0,1,94.58,9.8a1.47,1.47,0,0,0,.53.24c4.64,1,14,6.6,21.4,12.85a60,60,0,0,1,9.18,9.31c2.16,2.89,2.92,5.3,2.58,6.33a138.65,138.65,0,0,1-9.84,23.26C114.53,68.76,110,74,106,75.14a2.72,2.72,0,0,1-2.69-1,9.07,9.07,0,0,1-1.46-4.34c-.53-4.08-.09-10.15.41-16.76s1-13.81.55-20.38-2-12.59-5.83-16.73a1.48,1.48,0,1,0-2.16,2c3.12,3.35,4.6,8.69,5.06,14.94s-.06,13.31-.55,19.92-1,12.75-.41,17.39A11.34,11.34,0,0,0,101,76a6.08,6.08,0,0,0,5.41,2.07l.24,0c5.64-1.54,10.28-7.5,14.37-14.81a140.89,140.89,0,0,0,10.06-23.8c.93-2.83-.66-5.85-3-9a62.23,62.23,0,0,0-9.64-9.8C110.88,14.29,102,8.7,96.11,7.29a31,31,0,0,0-9.23-5C82.31.77,75.82-.2,65.63,0Zm0,0"/>
  <path class="cls-1" d="M100.08,55.24a1.52,1.52,0,0,0-1.33,1.15A25.14,25.14,0,0,1,95.26,62a36.69,36.69,0,0,1-4.78,5.21,1.5,1.5,0,0,0-.57,1.29A24.24,24.24,0,0,1,86.06,83.7c-2.65,3.91-6,5.92-9.16,5.2a1.48,1.48,0,0,0-.66,2.88c4.7,1.08,9.22-1.91,12.28-6.42a26.91,26.91,0,0,0,4.32-16.3,37.77,37.77,0,0,0,4.75-5.2c1.86-2.4,3.54-4.71,4-6.76a1.55,1.55,0,0,0-1.55-1.86Zm-69.16.22a1.54,1.54,0,0,0-1.2,1.85c.51,2.08,2.21,4.18,4.08,6.35a42.58,42.58,0,0,0,4.75,4.75,29.86,29.86,0,0,0,5.21,16.84C47.09,89.85,52,92.83,57.32,92a1.48,1.48,0,1,0-.43-2.92c-4.06.59-7.84-1.61-10.74-5.63a27.19,27.19,0,0,1-4.71-15.78,1.51,1.51,0,0,0-.59-1.2A40.88,40.88,0,0,1,36,61.71a20.63,20.63,0,0,1-3.45-5.13,1.53,1.53,0,0,0-1.66-1.12Zm0,0"/>
  <path class="cls-1" d="M65.66,60.34c-11.34.09-11.62,14.71.83,14s10.51-14.11-.83-14Zm0,0"/>
  <path class="cls-1" d="M66.48,73a1.23,1.23,0,0,0-1.16,1.2l-.05,7.38a1.18,1.18,0,1,0,2.36,0l.05-7.38A1.23,1.23,0,0,0,66.48,73Zm0,0"/>
  <path class="cls-1" d="M43.78,29A7.7,7.7,0,0,0,39,30.64a6.1,6.1,0,0,0-2.11,5,6.23,6.23,0,0,0,2.58,5,7.68,7.68,0,0,0,5.09,1.22,8.4,8.4,0,0,0,4.88-2,6,6,0,0,0-.66-9.53,8.49,8.49,0,0,0-5-1.4Zm0,1.77a6.83,6.83,0,0,1,3.91,1.09,4.26,4.26,0,0,1,.46,6.74,6.72,6.72,0,0,1-3.82,1.59,6,6,0,0,1-3.93-.91,4.27,4.27,0,0,1-1.83-3.62A4.24,4.24,0,0,1,40.09,32a6,6,0,0,1,3.73-1.25Zm0,0"/>
  <path class="cls-1" d="M44.19,31.76c-4.4-.07-5.24,7.18.21,6.89s4.19-6.82-.21-6.89Zm0,0"/>
  <path class="cls-1" d="M88.11,28.82a8.58,8.58,0,0,0-5,1.42,6,6,0,0,0-.66,9.51,8.43,8.43,0,0,0,4.87,2.05,7.7,7.7,0,0,0,5.1-1.22,6.23,6.23,0,0,0,2.6-5,6.12,6.12,0,0,0-2.12-5,7.69,7.69,0,0,0-4.82-1.7Zm0,1.77a6,6,0,0,1,3.73,1.27,4.23,4.23,0,0,1,1.48,3.64,4.29,4.29,0,0,1-1.85,3.62,6,6,0,0,1-3.91.9,6.71,6.71,0,0,1-3.84-1.59,4.26,4.26,0,0,1,.46-6.74,6.88,6.88,0,0,1,3.93-1.11Zm0,0"/>
  <path class="cls-1" d="M87.69,31.63c4.4-.07,5.24,7.18-.21,6.89s-4.19-6.82.21-6.89Zm0,0"/>
  <path class="cls-1" d="M57.71,83.55a1.22,1.22,0,0,0-1.07,1.05c-.6,4.7-.53,9.85.92,14A12.18,12.18,0,0,0,60.94,104,9.19,9.19,0,0,0,67,106.14a8.48,8.48,0,0,0,6.05-2.35,12.62,12.62,0,0,0,3.14-5.59,31.85,31.85,0,0,0,.52-13.57A1.18,1.18,0,1,0,74.4,85,30.2,30.2,0,0,1,74,97.53a10.41,10.41,0,0,1-2.53,4.56A5.88,5.88,0,0,1,67,103.77a6.64,6.64,0,0,1-4.54-1.6,9.87,9.87,0,0,1-2.7-4.3c-1.26-3.62-1.4-8.52-.83-13a1.24,1.24,0,0,0-1.25-1.35Zm0,0"/>
  <path class="cls-1" d="M66.35,85.59a1.23,1.23,0,0,0-1.15,1.22l.18,10.28a1.18,1.18,0,0,0,2.37,0l-.18-10.28a1.23,1.23,0,0,0-1.22-1.18Zm0,0"/>
  <path class="cls-1" d="M48.68,76.85a1.22,1.22,0,0,0-1.14,1c-.49,2.52,0,4.57,1.38,5.84A7.73,7.73,0,0,0,54.2,85.4c4,.1,8.72-1.21,12.33-2.36,3.64,1.17,8.4,2.37,12.3,2.22A7.41,7.41,0,0,0,84,83.48c1.27-1.28,1.62-3.32.9-5.71a1.19,1.19,0,0,0-2.27.68c.57,1.9.3,2.75-.29,3.34a5.57,5.57,0,0,1-3.56,1.09c-3.43.14-8.35-1-11.87-2.2a1.2,1.2,0,0,0-.74,0c-3.56,1.14-8.41,2.43-11.87,2.34A5.71,5.71,0,0,1,50.54,82c-.69-.65-1.08-1.64-.68-3.68a1.24,1.24,0,0,0-1.18-1.42Zm0,0"/>
</svg>
