<svg xmlns="http://www.w3.org/2000/svg" viewBox="0 0 101.16 123.22">
  <title>Animals-047</title>
  <path d="M18.23.06a2.67,2.67,0,0,0-.85.39A5.25,5.25,0,0,0,16.2,1.59a22.64,22.64,0,0,0-2.27,3.67A87.92,87.92,0,0,0,9.06,17.18C6,26.35,3.54,37,5.13,43.78c.13,1.47-.77,5-1.94,9.45a90.3,90.3,0,0,0-3,15.93c-1,12,1.69,26.33,16,38.84C23,118.07,37,121.59,46.33,121.63a1.48,1.48,0,1,0,0-3c-8.6,0-21.86-3.63-27.82-12.46a1.58,1.58,0,0,0-.26-.29C4.52,94,2.21,80.85,3.13,69.41A87.92,87.92,0,0,1,6,54c1.16-4.4,2.25-7.79,2-10.49a1.15,1.15,0,0,0,0-.22C6.71,38,8.84,27.15,11.86,18.12A85.34,85.34,0,0,1,16.55,6.64a20.82,20.82,0,0,1,2-3.2,1.81,1.81,0,0,1,.18-.18C22,5.74,25.73,10.6,29,16.05a137.07,137.07,0,0,1,8.31,16.82,1.54,1.54,0,0,0,2,.78c1.77-.86,5.66-1.66,10.26-1.51s8.57,1,10.34,1.83a1.54,1.54,0,0,0,2-.78A136.78,136.78,0,0,1,70.2,16.35C73.44,10.87,77.14,6,80.51,3.53a2,2,0,0,1,.2.2,20,20,0,0,1,2,3.08A80.47,80.47,0,0,1,87.5,18c3.12,8.84,5.37,19.52,4.06,25.18a1.44,1.44,0,0,0,0,.22c-.23,3,1.06,6.43,2.47,10.75a84.11,84.11,0,0,1,3.78,14.9c1.51,11-.26,23.86-14.4,36.76a1.57,1.57,0,0,0-.29.37c-2.49,4.5-7.17,7.81-12.31,9.88a34.89,34.89,0,0,1-14.69,2.57,1.48,1.48,0,1,0-.22,2.94,37.26,37.26,0,0,0,16-2.77c5.48-2.2,10.64-5.75,13.61-10.93,14.66-13.45,16.82-27.55,15.23-39.19a86.36,86.36,0,0,0-3.91-15.42c-1.42-4.33-2.46-7.86-2.33-9.62C96,36.58,93.47,26,90.29,17a83.06,83.06,0,0,0-5-11.63A21.72,21.72,0,0,0,83,1.84,5.29,5.29,0,0,0,81.76.73,2.24,2.24,0,0,0,79.82.41a1.57,1.57,0,0,0-.35.16c-4.31,2.84-8.29,8.31-11.82,14.27a135.84,135.84,0,0,0-7.9,15.91,34.93,34.93,0,0,0-10.12-1.59,28.9,28.9,0,0,0-10.21,1.28,135.86,135.86,0,0,0-7.92-15.91C28,8.57,24,3.11,19.69.27A1.45,1.45,0,0,0,19.36.1a2,2,0,0,0-1.12,0Zm0,0"/>
  <path d="M50.08,78.37c-8.83,0-10.16,12.06.28,12.07s8.54-12.1-.28-12.07Zm0,0"/>
  <path d="M50.37,89.25a1.22,1.22,0,0,0-1.05,1.2l0,5.74a1.18,1.18,0,1,0,2.36,0l0-5.74a1.23,1.23,0,0,0-1.31-1.2Zm0,0"/>
  <path d="M50.69,95A9.71,9.71,0,0,0,46,96.6c-1.45.83-2.85,1.78-4.08,2.4a4.1,4.1,0,0,1-2.88.61c-.68-.22-1.49-.92-2.24-3.08a1.18,1.18,0,1,0-2.23.78c.87,2.52,2.11,4,3.73,4.56a6.13,6.13,0,0,0,4.67-.74c1.46-.73,2.87-1.71,4.21-2.48a8.17,8.17,0,0,1,3.51-1.29,7.78,7.78,0,0,1,3.47,1.24c1.34.76,2.75,1.73,4.21,2.45a6.14,6.14,0,0,0,4.67.72q2.43-.79,3.73-4.56a1.18,1.18,0,0,0-2.24-.78c-.75,2.16-1.55,2.88-2.23,3.1a4.12,4.12,0,0,1-2.88-.61c-1.23-.61-2.64-1.56-4.1-2.38A9.41,9.41,0,0,0,50.69,95Zm0,0"/>
  <path d="M41.9,99.5a1.22,1.22,0,0,0-1,1.09c-.46,4.87-.38,10.3,1,14.7A13,13,0,0,0,45,120.89a8.22,8.22,0,0,0,5.85,2.33,8.33,8.33,0,0,0,5.82-2.2,12.13,12.13,0,0,0,3.1-5.41c1.32-4.28,1.4-9.66,1.05-14.81a1.18,1.18,0,1,0-2.35.15c.34,5,.2,10.2-1,14A9.91,9.91,0,0,1,55,119.29a5.74,5.74,0,0,1-4.19,1.57,5.66,5.66,0,0,1-4.21-1.66,10.76,10.76,0,0,1-2.53-4.6c-1.19-3.89-1.32-9.12-.89-13.79A1.24,1.24,0,0,0,41.9,99.5Zm0,0"/>
  <path d="M50.12,100.25a1.23,1.23,0,0,0-1,1.22l.18,10.28a1.18,1.18,0,0,0,2.37,0l-.2-10.3a1.23,1.23,0,0,0-1.33-1.16Zm0,0"/>
  <path d="M32.65,54.32a10.29,10.29,0,0,0-3.45,1.2,12.26,12.26,0,0,0-2.84,2.07A3.59,3.59,0,0,0,25,60.12a3.93,3.93,0,0,0,1.48,2.81,10.12,10.12,0,0,0,3,1.81,11.94,11.94,0,0,0,3.45.83A4.86,4.86,0,0,0,36,65a3.6,3.6,0,0,0,1.33-1.83,8.61,8.61,0,0,0,.55-2.6A6.46,6.46,0,0,0,36,55.12a4.19,4.19,0,0,0-3.31-.79Zm.22,1.77a2.46,2.46,0,0,1,1.94.37,4.81,4.81,0,0,1,1.31,4,7.19,7.19,0,0,1-.42,2.09,2.53,2.53,0,0,1-.63,1,3.58,3.58,0,0,1-2,.28,10.34,10.34,0,0,1-2.94-.72,8.58,8.58,0,0,1-2.49-1.46,2.32,2.32,0,0,1-.9-1.53,3.26,3.26,0,0,1,.83-1.26A10.7,10.7,0,0,1,30,57.07a8.73,8.73,0,0,1,2.84-1Zm0,0"/>
  <path d="M31.36,57.46c-3,.23-2.9,4.91.63,4.72s2.39-4.95-.63-4.72Zm0,0"/>
  <path d="M68.56,55.25a4.18,4.18,0,0,0-3.31.78,6.46,6.46,0,0,0-2,5.46,8.59,8.59,0,0,0,.57,2.6,3.58,3.58,0,0,0,1.31,1.83,4.88,4.88,0,0,0,3,.55,12,12,0,0,0,3.47-.83,10,10,0,0,0,3-1.81A4,4,0,0,0,76.2,61a3.62,3.62,0,0,0-1.37-2.53A12.18,12.18,0,0,0,72,56.43a10.25,10.25,0,0,0-3.45-1.18ZM68.34,57a8.67,8.67,0,0,1,2.82,1,10.66,10.66,0,0,1,2.42,1.75A3.43,3.43,0,0,1,74.43,61a2.28,2.28,0,0,1-.9,1.51A8.53,8.53,0,0,1,71,64a10.34,10.34,0,0,1-2.94.72,3.57,3.57,0,0,1-2-.29,2.53,2.53,0,0,1-.63-1,7,7,0,0,1-.44-2.07,4.83,4.83,0,0,1,1.33-4A2.46,2.46,0,0,1,68.34,57Zm0,0"/>
  <path d="M69.81,58.32c3,.23,2.9,4.91-.63,4.72s-2.39-4.95.63-4.72Zm0,0"/>
</svg>
