<svg id="Layer_1" data-name="Layer 1" xmlns="http://www.w3.org/2000/svg" viewBox="0 0 72.64 82.92">
  <title>BasicRecycling-001</title>
  <g>
    <path d="M11.84,78c.76,0,1.11-.33,1.11-1.12s-.35-1.15-1.11-1.15H10V78Zm.11-3.81c1.62,0,2.84.62,2.84,2.69a2.38,2.38,0,0,1-1.1,2.29L15,82.79H13l-1-3.21H10v3.21H8.16V74.24Zm5,8.55V74.23h5.46v1.63l-3.63,0v1.79h3v1.63h-3v1.94h3.65v1.63ZM29.44,76.4a1.81,1.81,0,0,0-1.54-.84c-1.38,0-1.79,1.19-1.79,2.93s.4,3,1.79,3a1.77,1.77,0,0,0,1.54-.84l1.36.88a3.31,3.31,0,0,1-2.9,1.43c-2.5,0-3.71-2-3.71-4.42s1.22-4.4,3.71-4.4a3.32,3.32,0,0,1,2.9,1.43l-1.36.87Zm6.76,6.39H34.36V79.94l-2.81-5.71h2l1.73,3.83L37,74.23h2l-2.81,5.71v2.85Zm8.62-6.39a1.81,1.81,0,0,0-1.54-.84c-1.38,0-1.79,1.19-1.79,2.93s.4,3,1.79,3a1.77,1.77,0,0,0,1.54-.84l1.36.88a3.31,3.31,0,0,1-2.9,1.43c-2.5,0-3.71-2-3.71-4.42s1.22-4.4,3.71-4.4a3.32,3.32,0,0,1,2.9,1.43l-1.36.87ZM48,82.79V74.23h1.83v7h3.49v1.53Zm7,0V74.23h5.46v1.63l-3.63,0v1.79h3v1.63h-3v1.94h3.65v1.63Z"/>
    <g>
      <g>
        <path d="M9.79,63.38h0a3.82,3.82,0,0,0,1.44.48h0A3.79,3.79,0,0,1,9.79,63.38Z"/>
        <path d="M11.22,63.86a5.2,5.2,0,0,1-1.43-.48A3.79,3.79,0,0,0,11.22,63.86Z"/>
        <path d="M14.54,49.92l4.93-8.53,6.06,3.5L20.4,25.78,1.29,30.9l6.06,3.53L1.08,45.28a5.37,5.37,0,0,0,0,4.85L7.64,61.49a5.14,5.14,0,0,0,2.15,1.89,2.43,2.43,0,0,1-1.22-2.22,4.43,4.43,0,0,1,.66-2.1Z"/>
        <path d="M11.23,63.86l.29,0h0Z"/>
        <path d="M8.56,61.16a2.43,2.43,0,0,0,1.22,2.22h0A2.42,2.42,0,0,1,8.56,61.16Z"/>
        <path d="M11.51,63.89l-.29,0h0l.28,0Z"/>
        <path d="M9.22,59.06a4.43,4.43,0,0,0-.66,2.1,2.42,2.42,0,0,0,1.23,2.22,5.2,5.2,0,0,0,1.43.48l.29,0,1,0H30.69v-14H14.54Z"/>
      </g>
      <g>
        <path d="M27.12,1.41h0a3.81,3.81,0,0,0-1.14,1h0A3.84,3.84,0,0,1,27.12,1.41Z"/>
        <path d="M26,2.41a5.3,5.3,0,0,1,1.13-1A3.84,3.84,0,0,0,26,2.41Z"/>
        <path d="M36.37,12.28l4.9,8.55L35.2,24.31l19.09,5.18L59.47,10.4l-6.1,3.47L47.14,3A5.38,5.38,0,0,0,42.95.55L29.84.5a5.14,5.14,0,0,0-2.72.91,2.42,2.42,0,0,1,2.53.06,4.41,4.41,0,0,1,1.48,1.62Z"/>
        <path d="M26,2.42l-.17.23h0Z"/>
        <path d="M29.66,1.47a2.42,2.42,0,0,0-2.53-.06h0A2.42,2.42,0,0,1,29.66,1.47Z"/>
        <path d="M25.82,2.65,26,2.41h0l-.17.23Z"/>
        <path d="M31.14,3.09a4.41,4.41,0,0,0-1.48-1.62,2.42,2.42,0,0,0-2.53-.06,5.3,5.3,0,0,0-1.13,1l-.17.23-.52.85L16.15,19.21l4.4,2.56,7.69,4.47,8.12-14Z"/>
      </g>
      <g>
        <path d="M72.12,46.95h0a3.83,3.83,0,0,0-.31-1.48h0A3.85,3.85,0,0,1,72.12,46.95Z"/>
        <path d="M71.8,45.47a5.25,5.25,0,0,1,.31,1.48A3.85,3.85,0,0,0,71.8,45.47Z"/>
        <path d="M58.11,49.67l-9.85.08-.05-7L34.32,56.85l14.1,13.88,0-7,12.54-.1a5.37,5.37,0,0,0,4.18-2.46l6.47-11.41a5.13,5.13,0,0,0,.54-2.81,2.42,2.42,0,0,1-1.29,2.18,4.4,4.4,0,0,1-2.14.5Z"/>
        <path d="M71.8,45.47l-.11-.26h0Z"/>
        <path d="M70.82,49.13a2.42,2.42,0,0,0,1.29-2.18h0A2.42,2.42,0,0,1,70.82,49.13Z"/>
        <path d="M71.68,45.21l.12.26h0l-.12-.26Z"/>
        <path d="M68.69,49.62a4.4,4.4,0,0,0,2.14-.5,2.42,2.42,0,0,0,1.29-2.18,5.25,5.25,0,0,0-.31-1.48l-.12-.26-.49-.87L62,28.66l-4.39,2.58-7.67,4.51,8.18,13.93Z"/>
      </g>
    </g>
  </g>
</svg>
