<svg xmlns="http://www.w3.org/2000/svg" viewBox="0 0 70.53 68.5">
  <title>BasicRecycling-002</title>
  <path d="M55.63,9.7c2.4-1.31,4.72-2.69,7-4.09-2.84,5.54-6.11,11.18-9.14,16.72-6.37.31-13.44.63-20.27,1,2.64-1.67,5.45-3.17,8.18-4.75-1.45-2.78-3.16-5.31-4.63-8.06-2.86,5-5.61,10-8.36,15.1C23.21,22.8,18,19.9,12.81,17c1.71-3.19,3.54-6.3,5.41-9.74C20,4,21.63.36,26.34,0a17.61,17.61,0,0,1,2.35.12c2.94.18,6,.12,9,.18,3.21.06,6.38-.1,9.44.12,3.65.26,4.8,3,6.26,5.47ZM26.46,1.46c-4.64.36-6,4.7-7.82,8.06-1.35,2.46-2.74,4.81-3.85,7,4.37,2.36,8.67,4.8,13,7.16C30.5,18.85,33.14,14,35.85,9.13,33.48,5.79,32.34,1,26.46,1.46Z"/>
  <path d="M62.18,19.92c1.55,2.68,3,5.26,4.57,8C68.61,31.23,72,35.31,69.82,40a17.85,17.85,0,0,1-1.68,2.53c-1.18,1.75-2.25,3.59-3.25,5.17s-2.16,3.46-3.25,5.17-2,3.6-3.19,5.17a6.1,6.1,0,0,1-4.09,2.34c-2.68.25-5.58-.28-8.12-.06-.14,2.75-.07,5.43-.18,8.18-3.19-5.5-6.32-11-9.5-16.5,3.15-6,6.44-11.91,9.62-17.9,0,2.4-.13,6.37-.18,9.44,3,.14,6.11.12,9.26.18-2.69-4.89-5.68-10-8.54-14.92C51.8,25.81,57.12,22.73,62.18,19.92ZM48.71,29.36c2.84,4.74,5.47,9.68,8.36,14.38,2-.11,3.8.14,5.71,0a6.81,6.81,0,0,0,5.71-4.27c1.71-3.7-.73-6.88-2.17-9.38-1.65-2.87-3.23-5.73-4.69-8.18C57.42,24.24,52.92,26.82,48.71,29.36Z"/>
  <path d="M29.65,40c-2.68-1.38-5.38-3.27-8.12-4.81-1.64,2.6-3.21,5.29-4.75,8H34c.12,5.84,0,12.24.06,17.8-5.41-.26-9.82.35-15,0a7.93,7.93,0,0,1-6.32-3.43,27.35,27.35,0,0,1-1.69-3.19C8.86,50.17,6.58,46,4.37,41.68c-1-2-2.88-4.52-1.68-7.52a27.9,27.9,0,0,1,2.1-3.55C5.51,29.33,6.14,28.12,6.9,27,4.73,25.52,2,24.18,0,22.75c5.12,0,9.94-.06,15.4-.06h3.43m-3,22.07c-.51.83-1,1.77-1.5,2.71a20.88,20.88,0,0,0-1.5,2.71,7.32,7.32,0,0,0,1.26,6.74,7,7,0,0,0,5.11,2.59c4,.27,9-.2,13.41,0-.13-4.86,0-10-.06-14.92H15.94C15.85,44.59,15.87,44.71,15.82,44.76Z"/>
</svg>
