<svg xmlns="http://www.w3.org/2000/svg" viewBox="0 0 216.66 244.25">
  <title>Beach-001</title>
  <g id="Layer_2" data-name="Layer 2">
    <g id="Ñëîé_2" data-name="Ñëîé 2">
      <g>
        <path d="M130.44,244.25h34.17a407.44,407.44,0,0,0-2.16-41.62,318.82,318.82,0,0,0-6.79-39c-5.91-25.24-17-50.15-33.46-70.29a119.89,119.89,0,0,0-11-11.83,76.31,76.31,0,0,0-7.1-6c-1-.72-5.12-4.25-6.34-3.21-1,.89.88,4.49,1.27,5.4,1,2.34,2.15,4.63,3.21,7,1.9,4.15,3.86,8.27,5.68,12.46a230.89,230.89,0,0,1,11.46,32.44c6.23,23.35,8.94,47.45,10.11,71.55C130.19,215.45,130.39,229.86,130.44,244.25Z"/>
        <path d="M216.42,69.92C206.28,38.59,170.27,22,139,27a107.85,107.85,0,0,1,16-9.85C159.2,15,166.57,13.6,170,10.7c2.25-1.88,4.21-.28,2.58-4.26-1.19-2.91-12-4.78-14.44-5.29-23.05-4.73-47,5.53-62.76,22.28-1.31,1.4-5.23,8.33-7.39,9.08-2.69.94-7.85-2.82-11.32-4.13A72.13,72.13,0,0,0,57.31,24a75.58,75.58,0,0,0-37.69,6.41C14.73,32.63-1.93,40.91.18,48.86c16.75-1.35,33.91-.49,50.21,3.79C29,55.67,11.66,71.3,4.23,91.29c-2.68,7.2-10,47.82,6.05,48.58,5.05-24.08,21.53-51.06,45.34-60C29,105.75,20.09,139,42.77,170.46c2.2,3.05,6.29,10.27,10.43,8.13,1-.52-2.78-16.67-2.78-23.16,0-22,6.9-36.1,21.12-47.73-5.55,15.08-3.43,32.1,4.28,46,3,5.35,17.75,26.48,26.11,20.71-12.16-22.89-16.48-56.78-2.82-79.84,15.57-26.28,62.59.41,77.58,16,4.87,5.08,8,10.87,12.12,16.42,3.47,4.67,4,7,6.06.69,4.31-13.3-6.62-33.11-14.33-43-9.74-12.46-21.34-18.8-35.09-26a183.66,183.66,0,0,1,43.5,5.63,184.78,184.78,0,0,1,19.57,6.32c1.33.51,9.64,5,7.9-.82C216.31,69.58,216.52,70.28,216.42,69.92Z"/>
      </g>
    </g>
  </g>
</svg>
